<svg xmlns="http://www.w3.org/2000/svg" xmlns:xlink="http://www.w3.org/1999/xlink" viewBox="0,0,256,256" width="100px" height="100px" fill-rule="nonzero"><g fill="#ffffff" fill-rule="nonzero" stroke="none" stroke-width="1" stroke-linecap="butt" stroke-linejoin="miter" stroke-miterlimit="10" stroke-dasharray="" stroke-dashoffset="0" font-family="none" font-weight="none" font-size="none" text-anchor="none" style="mix-blend-mode: normal"><g transform="scale(5.12,5.12)"><path d="M4,4v1v9h10v-10zM16,4v2h4v4h2v-4h2v-2zM26,4v2h2v-2zM30,4v2h2v6h2v-8zM36,4v1v9h10v-10zM6,6h6v6h-6zM38,6h6v6h-6zM8,8v2h2v-2zM16,8v4h2v-4zM24,8v2h6v-2zM40,8v2h2v-2zM17,15v1h-2v2h2v-1h3v1h2v1h2v-2h-2v-1h-2v-1zM30,15v1h-2v1h-2v2h2v-1h2v-1h3v1h2v-2h-2v-1zM4,16v6h4v-2h-2v-4zM8,16v2h4v-2zM38,16v2h4v-2zM44,16v4h2v-4zM10,20v6h2v-6zM38,20v2h4v-2zM18,21v2h-2v2h2v-1h4v-3zM28,21v3h4v1h2v-2h-2v-2zM44,22v2h-2v2h4v-4zM4,24v4h2v-2h2v-2zM38,24v6h2v-6zM14,27v3h1v2h5v3h1v1h8v-1h1v-3h5v-2h1v-3h-2v2h-2v-1h-2v-1h-2v1h-2v1h-2v-1h-2v-1h-2v1h-2v1h-2v-2zM8,28v2h4v-2zM42,28v2h2v2h-6v2h4v4h2v2h-8v2h8v4h2v-10h-2v-2h2v-6zM4,30v4h2v-4zM8,32v2h4v-2zM22,32h6v1h-1v1h-4v-1h-1zM4,36v1v9h10v-10zM38,36v2h2v-2zM6,38h6v6h-6zM8,40v2h2v-2zM16,40v6h8v-2h-2v-2h-2v2h-2v-4zM32,40v4h-2v-2h-2v2h-2v2h10v-2h-2v-4zM38,44v2h4v-2z"></path></g></g></svg>