<svg xmlns="http://www.w3.org/2000/svg" enable-background="new 0 0 100 100" viewBox="0 0 100 100" id="Vk">
  <path id="Layer_2" fill="#ffffff" fill-rule="evenodd" d="M97.471,64.602c0,0,0-29.087,0-29.087c0-26.568-6.273-32.889-32.849-32.889
				C-0.368,2.209,2.193-0.434,2.629,64.553c0,26.568,6.273,32.889,32.849,32.889h22.059C85.773,97.929,98.181,95.988,97.471,64.602z
				 M79.195,70.282h-6.916c-2.618,0-3.408-2.124-8.101-6.815c-4.1-3.951-5.829-4.445-6.866-4.445c-1.433,0-1.828,0.395-1.828,2.37
				v6.222c0,1.679-0.543,2.667-4.94,2.667c-7.311,0-15.362-4.445-21.093-12.642c-8.595-12-10.917-21.087-10.917-22.914
				c0-1.037,0.395-1.976,2.371-1.976h6.916c1.778,0,2.42,0.79,3.112,2.617c2.835,9.294,12.546,24.759,12.695,15.852
				c0,0,0-10.173,0-10.173c-0.296-4.642-2.766-5.037-2.766-6.716c0-0.741,0.692-1.58,1.778-1.58h10.867
				c1.482,0,1.976,0.741,1.976,2.518v13.729c0.188,3.292,2.236,1.997,4.298-0.148c4.989-5.531,8.496-14.124,8.496-14.124
				c0.445-1.037,1.235-1.975,3.013-1.975h6.916c2.075,0,2.519,1.037,2.075,2.519c-0.84,4.049-9.287,15.901-9.287,15.951
				c-0.741,1.136-1.037,1.729,0,3.062C72.985,56.762,87.493,69.864,79.195,70.282z" clip-rule="evenodd" class="color345e90 svgShape"></path>
</svg>
