<!DOCTYPE svg PUBLIC "-//W3C//DTD SVG 1.1//EN" "http://www.w3.org/Graphics/SVG/1.1/DTD/svg11.dtd">
<!-- Uploaded to: SVG Repo, www.svgrepo.com, Transformed by: SVG Repo Mixer Tools -->
<svg fill="#ffffff" width="800px" height="800px" viewBox="0 0 24 24" id="tea-bag" data-name="Line Color" xmlns="http://www.w3.org/2000/svg" class="icon line-color" stroke="#ffffff">
<g id="SVGRepo_bgCarrier" stroke-width="0"/>
<g id="SVGRepo_tracerCarrier" stroke-linecap="round" stroke-linejoin="round"/>
<g id="SVGRepo_iconCarrier">
<path id="primary" d="M13.28,8.55,15,12v8a1,1,0,0,1-1,1H6a1,1,0,0,1-1-1V12L6.72,8.55A1,1,0,0,1,7.62,8h4.76A1,1,0,0,1,13.28,8.55Z" style="fill: none; stroke: #ffffff; stroke-linecap: round; stroke-linejoin: round; stroke-width: 2;"/>
<path id="secondary" d="M19,15V7.5A4.49,4.49,0,0,0,14.5,3h0A4.49,4.49,0,0,0,10,7.5V12" style="fill: none; stroke: #ffffff; stroke-linecap: round; stroke-linejoin: round; stroke-width: 2;"/>
<line id="secondary-upstroke" x1="9.95" y1="12.5" x2="10.05" y2="12.5" style="fill: none; stroke: #ffffff; stroke-linecap: round; stroke-linejoin: round; stroke-width: 2;"/>
</g>
</svg>