<svg xmlns="http://www.w3.org/2000/svg" xmlns:xlink="http://www.w3.org/1999/xlink" viewBox="0,0,256,256" width="100px" height="100px" fill-rule="nonzero"><g fill="#ffa500" fill-rule="nonzero" stroke="none" stroke-width="1" stroke-linecap="butt" stroke-linejoin="miter" stroke-miterlimit="10" stroke-dasharray="" stroke-dashoffset="0" font-family="none" font-weight="none" font-size="none" text-anchor="none" style="mix-blend-mode: normal"><g transform="scale(5.12,5.12)"><path d="M14.66406,13.93555l1.24609,1.66016v2.13867h4.81836v-3.79883zM22.51563,13.93555v3.79883h4.82031v-3.79883zM29.13477,13.93555v3.79883h4.81836v-2.13867l1.24609,-1.66016zM4.58008,16.95313l-4.58594,14.05859h6l1,-3h2.03711v3h6.96289v-5h1.41601v5h9.86133v-6.12305l1.86719,6.12305h2.85547l2.07422,-6.12305v6.29688h6.92578v-3.17578h2l0.79297,3.17578h6.21289l-5.00586,-14.17383h-9v2h-4l-1.51562,4.9707l-1.48437,-4.9707h-6v2c0,-1.122 -0.90925,-2.0332 -2.03125,-2.0332h-6.96875v-2.02539zM8.99414,19.01172v5.87695h-1.54102zM40.99414,19.13281l1.54297,5.87891h-1.54297zM15.91016,21.51563h0.74219c0.542,0 0.98047,0.43847 0.98047,0.98047c0,0.542 -0.43847,0.98242 -0.98047,0.98242h-0.74219zM22.97852,22.02734v4.70703c0,0 -0.11227,-1.26055 -2.69727,-2.18555h0.17578c1.392,0 2.52148,-1.12948 2.52148,-2.52148zM15.91016,32.26563v2.13867l-1.24609,1.66016h6.06445v-3.79883zM22.5293,32.26563v3.79883h4.81836v-3.79883zM29.13477,32.26563v3.79883h6.06445l-1.24609,-1.66016v-2.13867z"></path></g></g></svg>