<svg xmlns="http://www.w3.org/2000/svg" xmlns:xlink="http://www.w3.org/1999/xlink" viewBox="0,0,256,256" width="100px" height="100px" fill-rule="nonzero"><g fill="#ffa500" fill-rule="nonzero" stroke="none" stroke-width="1" stroke-linecap="butt" stroke-linejoin="miter" stroke-miterlimit="10" stroke-dasharray="" stroke-dashoffset="0" font-family="none" font-weight="none" font-size="none" text-anchor="none" style="mix-blend-mode: normal"><g transform="scale(5.12,5.12)"><path d="M43.11328,22.15234c0,0 3.94531,0.19922 3.94531,-2.12109c0,-3.03516 -5.25391,-5.76953 -5.25391,-5.76953c0,0 0.82422,-1.74609 1.33594,-2.72266c0.51563,-0.97656 1.96094,-4.78516 2.08984,-5.65234c0.16406,-1.09375 -0.08594,-1.4375 -0.08594,-1.4375c-0.35547,2.34375 -4.17187,9.08984 -4.47266,9.32031c-3.72266,-1.74609 -8.83594,-2.23047 -8.83594,-2.23047c0,0 -5.00391,-10.53906 -9.71094,-10.53906c-4.66797,0 -4.64453,9.02344 -4.64453,9.02344c0,0 -1.32031,-2.55859 -2.97266,-2.55859c-2.42187,0 -3.21484,3.66406 -3.21484,7.63281c-4.78125,0 -8.80078,1.06641 -9.16016,1.16797c-0.35937,0.10547 -1.48828,0.92578 -0.97656,0.82422c1.04688,-0.33594 5.95703,-1.09766 10.25391,-0.72266c0.23828,3.77344 2.44141,8.6875 2.44141,8.6875c0,0 -4.72266,6.83984 -4.72266,11.72656c0,1.28516 0.55859,3.63672 3.94922,3.63672c2.83984,0 6.02734,-1.70703 6.62891,-2.05469c-0.52344,0.75 -0.91016,2.17188 -0.91016,2.82813c0,0.53516 0.31641,2.05469 2.50781,2.05469c2.8125,0 5.95313,-2.15625 5.95313,-2.15625c0,0 2.96484,4.92969 5.50391,7.19141c0.68359,0.60938 1.33594,0.71875 1.33594,0.71875c0,0 -2.51953,-2.42578 -5.83984,-8.67578c3.08594,-1.90625 6.29688,-6.40234 6.29688,-6.40234c0,0 0.37891,0.01172 3.30859,0.01172c4.58984,0 11.10938,-0.96484 11.10938,-4.61328c0,-3.76562 -5.85937,-7.16797 -5.85937,-7.16797zM43.625,19.88672c0,1.33203 -1.26562,1.3125 -1.26562,1.3125l-0.96484,0.06641c0,0 -1.82812,-0.96094 -2.93359,-1.41016c0,0 1.71484,-2.64844 2.11719,-3.38672c0.30469,0.17578 3.04688,1.89453 3.04688,3.41797zM24.42188,6.30859c2.15625,0 5.23438,5.09375 5.23438,5.09375c0,0 -4.80469,-0.42969 -8.75781,1.89453c0.10547,-3.66797 1.33984,-6.98828 3.52344,-6.98828zM15.87109,10.4375c0.6875,0 1.35938,0.83203 1.63672,1.53906c0,0.46875 0.24219,3.19531 0.24219,3.19531l-3.96094,-0.14844c0,-3.57422 1.39844,-4.58594 2.08203,-4.58594zM15.46484,35.24609c-2.16406,0 -2.61328,-1.20703 -2.61328,-2.29297c0,-2.45703 1.96094,-5.89453 1.96094,-5.89453c0,0 2.19922,4.625 6.03906,6.57813c-1.90625,1.11719 -3.47656,1.60938 -5.38672,1.60938zM22.49219,40.08984c-1.51953,0 -1.70312,-0.98437 -1.70312,-1.21094c0,-0.70703 0.55078,-1.54297 0.55078,-1.54297c0,0 2.55078,-1.72266 2.71484,-1.90625l1.88281,3.51563c0,0 -1.92969,1.14453 -3.44531,1.14453zM27.22656,38.17188c-0.92578,-1.61719 -1.60547,-3.30469 -1.60547,-3.30469c0,0 3.79297,0.24609 5.83203,-1.85937c-1.26953,0.57031 -3.29687,1.29297 -5.65234,1.07422c4.92578,-4.33984 7.80078,-7.48437 10.23047,-10.73828c-0.20703,-0.25 -1.32031,-1.02734 -1.59375,-1.15625c-1.46484,1.76563 -7.17187,7.86719 -12.45312,10.88672c-6.69141,-3.64844 -8.09375,-14.38281 -8.23828,-16.61328l3.65625,0.35156c0,0 -1.375,2.43359 -1.375,4.22656c0,1.78906 0.21484,1.88672 0.21484,1.88672c0,0 -0.04687,-3.125 1.88281,-5.53516c1.46875,7.82031 3,11.82813 4.19531,14.21484c0.60547,-0.25 1.73828,-0.75391 1.73828,-0.75391c0,0 -3.375,-9.73047 -3.1875,-16.31641c1.53125,-0.81641 3.79688,-1.66016 6.35547,-1.66016c6.73047,0 12.14063,2.89844 12.14063,2.89844l-2.11719,2.95703c0,0 -1.88672,-3.41797 -4.55078,-4.02734c1.40625,1.05078 2.98047,2.43359 3.79688,4.42578c-5.57812,-2.17969 -12.30859,-3.33203 -14.46875,-3.58594c-0.1875,0.79688 -0.16406,1.9375 -0.16406,1.9375c0,0 9.02734,1.66406 15.59766,5.42578c-0.04687,8.21875 -9,14.53125 -10.23437,15.26563zM35.77734,32.02734c0,0 2.80078,-3.67969 2.75781,-8.55078c0,0 4.52734,2.80469 4.52734,5.53906c0,3.05859 -7.28516,3.01172 -7.28516,3.01172z"></path></g></g></svg>