<svg xmlns="http://www.w3.org/2000/svg" xmlns:xlink="http://www.w3.org/1999/xlink" viewBox="0,0,256,256" width="100px" height="100px" fill-rule="nonzero"><g fill="#ffa500" fill-rule="nonzero" stroke="none" stroke-width="1" stroke-linecap="butt" stroke-linejoin="miter" stroke-miterlimit="10" stroke-dasharray="" stroke-dashoffset="0" font-family="none" font-weight="none" font-size="none" text-anchor="none" style="mix-blend-mode: normal"><g transform="scale(5.12,5.12)"><path d="M27.00391,5.00781c-0.16003,0.00906 -0.31911,0.03805 -0.47461,0.0918c-1.878,0.338 -2.86502,2.73891 -2.04102,4.37891c-0.1,0.092 -0.19883,0.18634 -0.29883,0.27734c-0.362,-0.497 -1.00653,-0.35933 -1.51953,-0.23633c-1.085,0.366 -1.78248,1.36725 -2.14648,2.40625c-0.452,1.221 -0.41286,2.54831 -0.25586,3.82031c-0.504,0.24 -1.07284,0.08758 -1.58984,0.26758c-0.037,1.017 -0.10425,2.03506 -0.28125,3.03906c-0.041,0.297 -0.10219,0.60548 0.00781,0.89648c0.457,0.106 0.91095,0.22416 1.37695,0.28516c-0.286,0.054 -0.55845,0.15892 -0.81445,0.29492c0,0 -0.14922,0.11316 -0.19922,0.16016c-0.154,1.325 0.30363,2.60764 0.26563,3.93164c-0.613,-0.13 -0.58987,0.58633 -0.67187,0.98633c0.084,0.077 0.16695,0.15638 0.25195,0.23438c-0.08,0.139 -0.14622,0.28164 -0.19922,0.43164c0.108,0.38 -0.00011,0.82933 0.33789,1.11133c-0.179,1.124 -0.38691,2.24591 -0.50391,3.37891c-0.048,0.374 0.19069,0.74438 0.05469,1.10938c-0.127,0.413 -0.44311,0.73797 -0.53711,1.16797c-0.492,0.487 -0.76303,1.13723 -1.08203,1.74023c-0.271,0.482 -0.21908,1.04727 -0.33008,1.57227c-0.294,0.512 -0.71798,1.00981 -0.70898,1.63281c-0.005,0.334 -0.07006,0.71484 0.21094,0.96484c-0.224,1.195 -0.59214,2.35706 -0.86914,3.53906c-0.044,0.449 -0.07328,0.93947 0.13672,1.35547c0.895,0.255 1.83019,0.13155 2.74219,0.06055c0.061,-0.4 0.07205,-0.80692 -0.12695,-1.16992c-0.324,-1.155 -0.00759,-2.40859 0.56641,-3.43359c0.504,-0.092 0.67687,-0.58163 0.79687,-1.01562c0.263,-0.963 0.88784,-1.78458 1.08984,-2.76758c0.045,-0.309 -0.14758,-0.62478 -0.01758,-0.92578c0.142,-0.327 0.22692,-0.72364 0.54492,-0.93164c0.293,-0.19 0.43945,-0.51222 0.56445,-0.82422c0.096,-0.289 0.45852,-0.34075 0.60352,-0.59375c0.27,-0.47 0.13495,-1.05216 0.37695,-1.53516c0.317,-0.744 0.47703,-1.59869 1.08203,-2.17969c0.286,-0.247 0.26877,-0.66259 0.50977,-0.93359c0.169,0.33 0.30827,0.69189 0.57227,0.96289c0.229,0.099 0.48742,0.07384 0.73242,0.08984c0.625,0.914 1.24137,1.83295 1.85938,2.75195c0.261,0.428 0.85106,0.51408 1.28906,0.33008c0.131,0.218 0.33358,0.40906 0.39258,0.66406c-0.038,0.392 -0.08933,0.78274 -0.11133,1.17773c-0.242,0.227 -0.41947,0.54081 -0.35547,0.88281c0.081,0.703 0.14522,1.41019 0.19922,2.11719c0.083,0.484 0.33316,0.93345 0.28516,1.43945c0.067,0.056 0.20058,0.16861 0.26758,0.22461c-0.045,0.775 0.16864,1.55231 0.05664,2.32031c-0.349,0.678 -0.36564,1.45855 -0.55664,2.18555c0.45,0.524 1.16305,0.23305 1.74805,0.24805c0.604,0.07 1.15925,0.40409 1.78125,0.37109c0.808,-0.012 1.62288,0.06106 2.42188,-0.08594c0.053,-0.288 0.07489,-0.58042 -0.03711,-0.85742c-0.366,-0.236 -0.76369,-0.41702 -1.17969,-0.54102c-0.442,-0.111 -0.68651,-0.52594 -0.97852,-0.83594c-0.267,-0.348 -0.65998,-0.64728 -0.70898,-1.11328c-0.069,-0.635 -0.03853,-1.28097 -0.01953,-1.91797c0.1,-0.272 0.31288,-0.50545 0.29688,-0.81445c0.142,-0.602 -0.20908,-1.18616 -0.08008,-1.78516c0.209,-1.326 0.37403,-2.66477 0.33203,-4.00977c-0.071,-0.101 -0.14098,-0.20078 -0.20898,-0.30078c-0.022,-0.221 -0.04536,-0.43825 -0.06836,-0.65625c-0.175,-0.077 -0.37411,-0.15423 -0.41211,-0.36523c-0.39,-1.089 -0.83689,-2.15527 -1.33789,-3.19727c-0.487,-0.92 -1.11941,-1.75539 -1.81641,-2.52539c-0.124,-0.362 -0.16295,-0.74814 -0.25195,-1.11914c0.069,-0.139 0.13798,-0.27801 0.20898,-0.41602c0.312,0.044 0.72242,0.34774 0.98242,0.05273c0.297,-0.454 0.53586,-0.96353 0.50586,-1.51953c-0.004,-0.948 0.26781,-1.88703 0.13281,-2.83203c-0.075,-0.434 -0.42466,-0.74422 -0.84766,-0.82422c0.085,-0.307 0.16675,-0.61669 0.21875,-0.92969c1.113,0.572 2.24148,1.3577 3.52148,1.4707c0.708,0.104 1.05508,-0.56023 1.58008,-0.86523c0.684,-0.487 0.50283,-1.43872 0.79883,-2.13672c0.206,-0.069 0.416,-0.12945 0.625,-0.18945c-0.108,-0.679 -0.38389,-1.3332 -0.33789,-2.0332c0.373,-0.279 0.80989,-0.58211 0.96289,-1.03711c0.145,-0.07 0.29055,-0.14275 0.43555,-0.21875c1.057,-0.016 2.11388,0.00619 3.17188,-0.00781c0.269,0.014 0.17037,-0.34391 0.23438,-0.50391c0.268,0.172 0.59934,0.19438 0.90234,0.10938c0.51,-0.167 1.05408,-0.07461 1.58008,-0.09961c0.342,0.01 0.72186,-0.06822 1.00586,0.17578c0.439,-0.076 0.88603,-0.06755 1.33203,-0.06055c0.006,-0.179 0.01058,-0.35616 0.01758,-0.53516c-0.347,0.001 -0.69211,0.00372 -1.03711,0.01172c-0.105,-0.042 -0.21141,-0.084 -0.31641,-0.125c-0.057,0.043 -0.17151,0.12597 -0.22852,0.16797c-0.766,0.062 -1.54059,0.01153 -2.30859,0.01953c0.009,-0.24 0.12697,-0.50813 -0.08203,-0.70312c-0.045,0.053 -0.13469,0.15989 -0.17969,0.21289c-0.06,-0.073 -0.18023,-0.22092 -0.24023,-0.29492c-0.004,-0.393 -0.00386,-0.78473 -0.00586,-1.17773c-0.068,0.001 -0.20539,0.00481 -0.27539,0.00781c0.001,0.498 -0.00105,0.99905 0.00195,1.49805c-0.072,0 -0.21611,-0.00195 -0.28711,-0.00195c0.006,-0.094 0.01839,-0.281 0.02539,-0.375c-2.743,-0.027 -5.48452,0.00038 -8.22852,-0.01562c0,-0.063 -0.00191,-0.187 -0.00391,-0.25c-0.167,-0.04 -0.33209,-0.08291 -0.49609,-0.12891c-0.001,-0.256 -0.00672,-0.51809 -0.13672,-0.74609c-0.112,0.343 -0.17672,0.69883 -0.26172,1.04883c-0.626,-0.043 -1.16192,0.39692 -1.79492,0.29492c-0.032,-0.364 -0.08889,-0.72675 -0.08789,-1.09375c0.296,-0.099 0.66109,-0.13853 0.87109,-0.39453c0.308,-0.759 0.10511,-1.61489 -0.21289,-2.33789c0.018,-0.042 0.05036,-0.12988 0.06836,-0.17187c-0.034,-0.063 -0.10467,-0.18991 -0.13867,-0.25391c-0.446,-0.168 -0.84419,-0.42759 -1.24219,-0.68359c-0.4275,-0.21075 -0.91639,-0.36313 -1.39648,-0.33594zM33.64648,12.2207c0.091,0.215 0.14206,0.44278 0.16406,0.67578c-0.049,0.05 -0.14827,0.15117 -0.19727,0.20117c-0.235,0.509 -0.58062,0.9887 -1.01562,1.3457c-0.142,-0.349 -0.31467,-0.68391 -0.51367,-1.00391c-0.046,-0.276 0.3523,-0.35423 0.5293,-0.49023c0.113,-0.061 0.22394,-0.12441 0.33594,-0.19141c-0.229,-0.243 -0.01487,-0.3953 0.20313,-0.5293c0.164,-0.001 0.33014,-0.00481 0.49414,-0.00781zM5,20c-1.105,0 -2,0.895 -2,2v9c0,1.105 0.895,2 2,2h8c1.105,0 2,-0.895 2,-2c0,-0.552 -0.448,-1 -1,-1h-8v-7h8c0.552,0 1,-0.448 1,-1c0,-1.105 -0.895,-2 -2,-2zM37,20c-1.105,0 -2,0.895 -2,2v4c0,1.105 0.895,2 2,2h7v2h-8c-0.552,0 -1,0.448 -1,1c0,1.105 0.895,2 2,2h8c1.105,0 2,-0.895 2,-2v-5c0,-0.552 -0.448,-1 -1,-1h-8.23047v-2h8.23047c0.552,0 1,-0.448 1,-1c0,-1.105 -0.895,-2 -2,-2z"></path></g></g></svg>