<svg xmlns="http://www.w3.org/2000/svg" xmlns:xlink="http://www.w3.org/1999/xlink" viewBox="0,0,256,256" width="100px" height="100px" fill-rule="nonzero"><g fill="#ffa500" fill-rule="nonzero" stroke="none" stroke-width="1" stroke-linecap="butt" stroke-linejoin="miter" stroke-miterlimit="10" stroke-dasharray="" stroke-dashoffset="0" font-family="none" font-weight="none" font-size="none" text-anchor="none" style="mix-blend-mode: normal"><g transform="scale(5.12,5.12)"><path d="M46,8v-2c0,-0.552 -0.447,-1 -1,-1h-4c-0.396,0 -0.714,0.026 -1,0.1v-0.1c0,-0.552 -0.447,-1 -1,-1h-6c-1.734,0 -2.361,0.984 -2.729,2h-0.812c-0.233,-0.311 -0.459,-0.714 -0.459,-1c0,-0.552 -0.447,-1 -1,-1h-7c-0.511,0 -0.94,0.393 -0.995,0.9c-0.023,0.21 -0.448,1.1 -1.109,1.1h-2.74c-0.065,-0.077 -0.159,-0.22 -0.24,-0.403c-0.16,-0.363 -0.52,-0.597 -0.916,-0.597h-10c-0.553,0 -1,0.448 -1,1v8c0,2.823 0.825,6.397 0.999,7.118l-0.008,1.515l-0.678,0.641c-0.2,0.188 -0.313,0.451 -0.313,0.726v4c0,0.266 0.105,0.52 0.293,0.707l0.707,0.707v4.424l-0.948,2.846c-0.061,0.181 -0.068,0.374 -0.021,0.559l0.929,3.718l-0.907,2.724c-0.103,0.305 -0.051,0.641 0.137,0.901c0.187,0.26 0.489,0.414 0.81,0.414h14c0.266,0 0.52,-0.105 0.707,-0.293l0.09,-0.09c0.531,0.726 1.27,1.383 2.203,1.383h3c0.736,0 1.38,-0.321 1.947,-0.605c0.388,-0.195 0.789,-0.395 1.053,-0.395h5c0.266,0 0.52,-0.105 0.707,-0.293l0.243,-0.243c0.063,0.08 0.123,0.159 0.182,0.235c0.491,0.64 0.998,1.301 1.868,1.301h5c0.553,0 1,-0.447 1,-1v-0.719l2.758,0.688c0.299,0.077 0.616,0.007 0.86,-0.184c0.243,-0.19 0.384,-0.483 0.382,-0.793c-0.001,-0.098 -0.063,-9.91 0,-14.98c0.003,-0.27 -0.103,-0.529 -0.293,-0.72l-0.707,-0.706v-4.586c0,-0.265 -0.105,-0.52 -0.293,-0.707l-0.49,-0.49l0.605,-1.21l0.885,-0.885c0.188,-0.188 0.293,-0.443 0.293,-0.708l-0.015,-5.01c0,-0.081 -0.01,-0.161 -0.029,-0.24l-0.896,-3.632l0.835,-1.67c0.069,-0.139 0.105,-0.293 0.105,-0.448zM34.089,12l3.044,2l-1.015,6l-8.118,-6zM15,38l-4,-3l2,-7l8,8zM36.2,37h-4.667l-20.533,-24.074l3.733,-0.926l24.267,18.518z"></path></g></g></svg>