<svg xmlns="http://www.w3.org/2000/svg" xmlns:xlink="http://www.w3.org/1999/xlink" viewBox="0,0,256,256" width="100px" height="100px" fill-rule="nonzero"><g fill="#ffa500" fill-rule="nonzero" stroke="none" stroke-width="1" stroke-linecap="butt" stroke-linejoin="miter" stroke-miterlimit="10" stroke-dasharray="" stroke-dashoffset="0" font-family="none" font-weight="none" font-size="none" text-anchor="none" style="mix-blend-mode: normal"><g transform="scale(5.12,5.12)"><path d="M9,4c-2.757,0 -5,2.243 -5,5v32c0,2.757 2.243,5 5,5h32c2.757,0 5,-2.243 5,-5v-32c0,-2.757 -2.243,-5 -5,-5zM16,9h17l-0.66797,3h7.66797l-1,7l1,17l-14,-1v5l-10,2v-5.71484l-6,1.71484l1,-18l-1,-8h6zM18,11v28.50781l6,-1.11133v-10.39648h5v-6h-5v-5h5.17383l1.33398,-6z"></path></g></g></svg>