<svg xmlns="http://www.w3.org/2000/svg" xmlns:xlink="http://www.w3.org/1999/xlink" viewBox="0,0,256,256" width="100px" height="100px" fill-rule="nonzero"><g fill="#ffa500" fill-rule="nonzero" stroke="none" stroke-width="1" stroke-linecap="butt" stroke-linejoin="miter" stroke-miterlimit="10" stroke-dasharray="" stroke-dashoffset="0" font-family="none" font-weight="none" font-size="none" text-anchor="none" style="mix-blend-mode: normal"><g transform="scale(5.12,5.12)"><path d="M8.388,15.074c-0.402,-0.167 -0.848,-0.478 -0.99,-0.679c0.863,-0.76 6.218,-1.331 9.617,-1.396c0.394,-0.008 0.749,-0.246 0.903,-0.608c0.154,-0.362 0.083,-0.782 -0.184,-1.071l-2.776,-3c-0.19,-0.205 -0.457,-0.32 -0.734,-0.32c-0.036,0 -0.072,0.002 -0.109,0.006c-4.288,0.468 -9.729,1.984 -11.366,3.873c-0.893,1.031 -0.934,2.249 -0.102,3.031c1.452,1.366 4.806,2.006 5.184,2.074c0.06,0.011 0.12,0.016 0.179,0.016c0.437,0 0.833,-0.287 0.959,-0.72c0.144,-0.492 -0.107,-1.012 -0.581,-1.206zM47.251,11.879c-1.637,-1.889 -7.078,-3.405 -11.366,-3.873c-0.037,-0.004 -0.073,-0.006 -0.109,-0.006c-0.277,0 -0.544,0.115 -0.734,0.321l-2.776,3c-0.269,0.291 -0.341,0.713 -0.183,1.077c0.158,0.364 0.515,0.6 0.912,0.602c3.396,0.065 8.765,0.637 9.61,1.391c-0.14,0.201 -0.589,0.515 -0.996,0.684c-0.471,0.196 -0.721,0.717 -0.576,1.207c0.127,0.432 0.521,0.718 0.957,0.718c0.059,0 0.119,-0.005 0.179,-0.016c0.378,-0.068 3.732,-0.708 5.184,-2.074c0.832,-0.782 0.791,-2 -0.102,-3.031zM19.5,8.5c3.116,0 4.5,3.261 4.5,4.5c0,0.552 0.448,1 1,1c0.552,0 1,-0.448 1,-1c0,-1.239 1.384,-4.5 4.5,-4.5c0.552,0 1,-0.448 1,-1c0,-0.552 -0.448,-1 -1,-1c-3.116,0 -4.5,-3.261 -4.5,-4.5c0,-0.552 -0.448,-1 -1,-1c-0.552,0 -1,0.448 -1,1c0,1.239 -1.384,4.5 -4.5,4.5c-0.552,0 -1,0.448 -1,1c0,0.552 0.448,1 1,1zM38.843,35.016h-13.743c-0.516,0 -0.948,0.393 -0.996,0.907c-0.048,0.514 0.304,0.98 0.811,1.075c1.353,0.254 3.498,1.173 3.498,2.559v5.106c-0.622,0.356 -1.794,0.677 -2.534,0.677c-6.883,0 -8.431,-9.751 -8.431,-13.167c0,-3.731 1.756,-10.782 8.396,-10.806c7.919,0.548 9.02,7.408 9.063,7.7c0.073,0.494 0.497,0.854 0.988,0.854c0.024,0 0.049,-0.001 0.074,-0.003c0.522,-0.038 0.927,-0.473 0.927,-0.997l0.002,-9.144c0,-0.545 -0.437,-0.99 -0.982,-1l-0.423,-0.008c-1.487,-0.028 -2.66,-0.05 -3.973,-0.523c-2.209,-0.769 -4.873,-1.246 -6.961,-1.246c-0.15,0 -0.296,0.002 -0.473,0.007c-0.102,-0.002 -0.204,-0.003 -0.306,-0.003c-7.957,0 -14.586,6.538 -14.777,14.573c-0.005,0.225 -0.005,0.45 -0.001,0.675c0,10.757 6.466,17.451 16.875,17.451c4.896,0 8.431,-1.477 10.807,-4.516c0.138,-0.176 0.212,-0.393 0.212,-0.616v-5.603c0,-1.732 1.824,-1.937 2.032,-1.955c0.534,-0.045 0.937,-0.504 0.914,-1.039c-0.022,-0.535 -0.463,-0.958 -0.999,-0.958zM30.482,48.128c1.813,-0.512 3.321,-1.37 4.547,-2.582c-1.226,1.213 -2.734,2.07 -4.547,2.582zM35.897,38.968v0c0,-0.267 0.029,-0.511 0.082,-0.735c-0.053,0.224 -0.082,0.468 -0.082,0.735z"></path></g></g></svg>