<svg xmlns="http://www.w3.org/2000/svg" xmlns:xlink="http://www.w3.org/1999/xlink" viewBox="0,0,256,256" width="100px" height="100px" fill-rule="nonzero"><g fill="#ffa500" fill-rule="nonzero" stroke="none" stroke-width="1" stroke-linecap="butt" stroke-linejoin="miter" stroke-miterlimit="10" stroke-dasharray="" stroke-dashoffset="0" font-family="none" font-weight="none" font-size="none" text-anchor="none" style="mix-blend-mode: normal"><g transform="scale(5.12,5.12)"><path d="M32,5v1c-0.286,0.039 -0.42616,0.14328 -0.66016,0.23828c-0.222,-0.092 -0.50461,-0.23828 -0.84961,-0.23828h-8.53711c-0.477,0 -0.89295,0.07694 -1.25195,0.21094c-0.36,-0.134 -0.77595,-0.21094 -1.25195,-0.21094h-7.43945c-2.068,0 -3.00977,1.44225 -3.00977,2.78125v9.21875h4v4.21875c0,0.585 0.17616,1.18369 0.53516,1.67969c-0.192,0.091 -0.37506,0.19517 -0.53906,0.32617c-0.653,0.519 -1.01172,1.29173 -1.01172,2.17773v4.7832c0,0.26 0.04619,0.5223 0.11719,0.7793c-0.401,-0.132 -0.78256,-0.26187 -0.85156,-0.29687l-0.49414,0.58984c-0.266,-0.091 -0.53283,-0.19297 -0.79883,-0.29297c-0.304,-0.114 -0.60811,-0.22803 -0.91211,-0.33203l-1.54883,-0.53125c0,0 -2.0413,3.72891 -2.1543,4.00391l-0.04492,0.10742l-0.03125,0.07422l-0.02539,0.07813c-0.109,0.335 -0.18738,0.66995 -0.23437,1.00195c-0.183,0.285 -0.3305,0.59306 -0.4375,0.91406c-0.202,0.562 -0.30078,1.0828 -0.30078,1.5918c0,0.626 0.134,1.11756 0.25,1.47656l0.01758,0.05469l0.02148,0.05469c0.03,0.076 0.06361,0.15061 0.09961,0.22461c-0.02,0.035 -0.03859,0.06947 -0.05859,0.10547c-0.391,0.676 -0.59766,1.43069 -0.59766,2.17969c0,0.777 0.24695,1.45708 0.75195,2.08008l0.05664,0.07031l0.0625,0.06445c0.513,0.527 1.19397,0.81641 1.91797,0.81641c0.383,0 0.76567,-0.08028 1.13867,-0.23828c0.505,-0.194 0.99978,-0.55123 1.55078,-1.11523l1.25391,0.42773l0.88086,-1.06641c0.154,-0.187 0.31175,-0.38113 0.46875,-0.57812l0.06836,0.08203l0.96289,1.15039l1.36524,-1.39844l1.11914,0.57422l0.41602,-0.60937l0.78125,0.80078l1.05664,-1.44727l1.19922,0.73828l0.57813,-0.76172c0.053,0.004 0.10616,0.00586 0.16016,0.00586c0.156,0 0.31184,-0.01873 0.46484,-0.05273c0.138,-0.026 0.27144,-0.06423 0.39844,-0.11523c0.128,-0.051 0.25023,-0.11641 0.36523,-0.19141l1.25195,0.77148l0.50195,-0.61719l1.3418,1.65039l0.77344,-1.58594l0.7793,0.93359l1.0332,-1.23828l1.05859,0.86914l1.03711,-1.06445l1.24609,1.49414l1.41992,-1.45898l1.71289,2.63672l1.2168,-2.08203c0.068,0.083 0.12945,0.15384 0.18945,0.21484l1.56836,1.60938l0.75195,-0.92773l0.2168,0.11328l0.18945,0.0957l0.07617,0.03906l1.38086,0.70703l0.16211,-0.18359l1.26172,1.29492l0.16797,-0.23242l0.0918,-0.125l0.70703,0.72656l0.34766,-0.53125l1.33984,2.06445l1.36133,-2.79883h1.49219v-5.50586l-0.34766,-0.50977c-0.049,-0.073 -0.09844,-0.14194 -0.14844,-0.21094l0.01758,-0.03711c0.104,-0.209 0.20945,-0.41972 0.31445,-0.63672l0.03711,-0.07422l0.0293,-0.07617c0.094,-0.241 0.19953,-0.51483 0.26953,-0.79883c0.013,-0.055 0.02797,-0.13417 0.04297,-0.20117c0.045,-0.203 0.0918,-0.44323 0.0918,-0.74023c-0.001,-0.304 -0.051,-0.62011 -0.125,-0.91211c-0.018,-0.071 -0.02978,-0.14784 -0.05078,-0.21484l-0.08203,-0.25195l-0.14258,-0.2207c-0.134,-0.207 -0.28517,-0.38702 -0.45117,-0.54102c-0.166,-0.154 -0.34797,-0.28281 -0.54297,-0.38281l-0.42969,-0.2207h-0.48242c-0.376,0 -0.73006,0.09167 -1.03906,0.26367l-1.08008,-1.29102l-0.66602,1.36523l-0.74023,-0.76172l-0.01562,-0.01367l-0.35352,0.53906l-1.43555,-1.17773l-0.50977,1.05078l-0.15234,-0.07812l-0.11133,0.11523l-0.92383,-1.70703l-1.25391,1.28711l-0.45898,-1.03711c0.02,-0.143 0.04492,-0.28555 0.04492,-0.43555l0.01758,-4.33008c0,-0.803 -0.34292,-1.63455 -1.04492,-2.18555c0.422,0.216 0.93278,0.35156 1.55078,0.35156h2.50391c2.042,0 2.97266,-1.44225 2.97266,-2.78125v-7.21875h-3v-10zM33.90625,6.52148h2.09375v7.47852h-3.55078c-0.673,0 -1.00781,-0.22314 -1.00781,-0.74414v-4.46484h-0.00195c0,-0.521 0.33677,-0.78125 1.00977,-0.78125h1.45703zM12.00977,8h3.47656v7.25586c0,0.521 -0.33676,0.74414 -1.00977,0.74414h-3.47656v-1.48828h2.50586v-0.51172h-1.49609c-0.674,0 -1.00977,-0.22314 -1.00977,-0.74414v-4.47461c0,-0.521 0.33677,-0.78125 1.00977,-0.78125zM16.11133,8h0.00195h3.47656c0.673,0 1.00977,0.26025 1.00977,0.78125v1.59961c0,0.298 -0.18744,0.52081 -0.52344,0.63281c0.336,0.112 0.52344,0.29781 0.52344,0.63281v3.34961l1.51367,0.00391v1.86523l1.43945,-0.00586c0.673,0 1.00781,0.26025 1.00781,0.78125v5.35938l-1.96289,0.00586v-4.57812h-0.48633v4.57813l-2.03516,-0.00586v-6.51562h-0.48633c-0.224,0 -0.44972,-0.03655 -0.63672,-0.18555c-0.224,-0.149 -0.37305,-0.33559 -0.37305,-0.55859v-3.98047h-0.44922v2.23242h-2.01953zM22.29297,8.00977h2.48242c0.677,0 1.01758,0.26025 1.01758,0.78125v5.20898h-3.49805c-0.677,0 -1.01758,-0.22314 -1.01758,-0.74414v-2.23242h-0.00195c0,-0.484 0.34058,-0.74414 1.01758,-0.74414h1.4668v-0.74414h-0.45117v0.37109h-2.03125v-1.11523c0,-0.521 0.33863,-0.78125 1.01563,-0.78125zM26.42969,8.00977h1.98047v0.4082c0.336,-0.26 0.82114,-0.4082 1.49414,-0.4082c0.224,0 0.44983,0.07366 0.67383,0.22266c0.224,0.149 0.33594,0.33364 0.33594,0.55664v5.21094h-2.01953v-4.46484h-0.48437v4.46484h-1.98047zM13.01953,9.52539v2.98633h0.48633v-2.98633zM18.13281,9.52539v0.74414h0.44727v-0.74414zM33.42188,9.53516v2.97656h0.48633v-2.97656zM23.30664,11.76758v0.74414h0.45117v-0.74414zM26.11719,16.99805h2.44727c0.621,0 0.95117,0.25662 0.95117,0.76563v2.98047h-2.41211v0.76563h0.47461v-0.36523h1.9375v1.0918c0,0.509 -0.33017,0.76367 -0.95117,0.76367h-2.44727c-0.658,0 -0.98633,-0.25467 -0.98633,-0.76367v-4.47266c0,-0.509 0.32933,-0.76562 0.98633,-0.76562zM14.98438,17h1.97266v0.40039h2.41016v1.49023h-2.41016v2.61914h0.47461v-2.25586h1.93555v2.98242c0,0.509 -0.32822,0.76367 -0.94922,0.76367h-2.44727c-0.658,0 -0.98633,-0.25467 -0.98633,-0.76367v-3.3457h-0.47461v-1.49023h0.47461zM31,17h2.66797v1.52734h-1.71875v0.36328h1.71875v1.49219h-1.71875v2.61719h-1.93555v-5.23633c0,-0.473 0.32933,-0.72667 0.98633,-0.76367zM34.61523,17h1.97461v0.40039h2.41016v1.49023h-2.41016v2.61914h0.47461v-2.25586h1.93555v2.98242c0,0.509 -0.29122,0.76367 -0.94922,0.76367h-2.44922c-0.658,0 -0.98633,-0.25467 -0.98633,-0.76367v-3.3457h-0.47461v-1.49023h0.47461zM27.10352,18.52734v0.72656h0.47461v-0.72656zM14.93945,26h2.34766c0.64,0 0.96094,0.25467 0.96094,0.76367v5.23633h-3.30859c-0.64,0 -0.96094,-0.25467 -0.96094,-0.76367v-2.25586c0,-0.473 0.31994,-0.72656 0.96094,-0.72656h1.42383v-0.76367h-0.46289v0.36523h-1.92187v-1.0918c0,-0.509 0.31994,-0.76367 0.96094,-0.76367zM18.73438,26h1.88477v4.3457c-0.005,0.002 -0.00867,0.00581 -0.01367,0.00781c-0.173,0.069 -0.34577,0.13642 -0.50977,0.23242c-0.097,0.057 -0.1863,0.13227 -0.2793,0.19727c-0.142,0.101 -0.28402,0.20027 -0.41602,0.32227c-0.091,0.085 -0.17277,0.1853 -0.25977,0.2793c-0.091,0.099 -0.19139,0.18592 -0.27539,0.29492c-0.079,-0.118 -0.13086,-0.25836 -0.13086,-0.44336zM21.08594,26h1.88281v4.21484c-0.309,-0.086 -0.62327,-0.14453 -0.94727,-0.14453c-0.112,0 -0.22675,0.00463 -0.34375,0.01563h-0.00195c-0.202,0.014 -0.39484,0.06428 -0.58984,0.11328zM24.03125,26h1.88477v0.36328h2.34766v1.49219h-2.34766v1.8457l-1.79492,0.3418c-0.033,0.007 -0.05784,0.01448 -0.08984,0.02148v-2.20898h-0.49805v-1.49219h0.49805zM29.65625,26h2.38281c0.641,0 0.96094,0.25467 0.96094,0.76367v4.47266c0,0.208 -0.06683,0.36333 -0.17383,0.48633l-0.29883,-0.30664l-0.49805,0.58398h-0.85156l-1.01562,-1.13672l-0.5957,-0.66797h-0.83594v-3.43164c0,-0.509 0.32078,-0.76367 0.92578,-0.76367zM30.61719,27.49023v3.01953h0.46094v-3.01953zM26.37891,28.25586h1.88477v1.93945h-1.66992l-0.07031,-0.60742l-0.14453,0.02539zM15.90039,29.74414v0.76563h0.46094v-0.76562zM24.52539,31.99805v0.03906c-0.152,0.117 -0.30486,0.27362 -0.38086,0.39063c-0.114,0.195 -0.18945,0.39 -0.18945,0.625v2.45898v2.45898c0,0.234 0.03817,0.468 0.07617,0.625c0.038,0.195 0.11345,0.31055 0.18945,0.31055c0.152,-0.039 0.30397,-0.07642 0.41797,-0.23242c0.038,0.078 0.07723,0.1153 0.11523,0.1543c-0.19,0.237 -0.34303,0.43378 -0.45703,0.55078c-0.304,0.39 -0.49537,0.70155 -0.60937,0.93555c-0.19,-0.234 -0.34197,-0.42906 -0.41797,-0.66406c-0.038,-0.117 -0.11452,-0.35125 -0.22852,-0.78125c-0.228,0.234 -0.45548,0.50719 -0.64648,0.74219c-0.19,0.234 -0.38126,0.50719 -0.57227,0.74219c-0.19,-0.117 -0.49417,-0.35112 -0.95117,-0.70312c-0.342,-0.273 -0.53142,-0.38867 -0.60742,-0.38867c-0.114,0 -0.19052,0.03919 -0.22852,0.11719c-0.076,0.078 -0.11328,0.19361 -0.11328,0.34961c0,0.078 0.03622,0.15638 0.07422,0.23438c0.038,0.078 0.03906,0.15638 0.03906,0.23438c0,0.078 -0.00106,0.19537 -0.03906,0.23438c-0.038,0.078 -0.07439,0.11719 -0.15039,0.11719c-0.076,0.039 -0.15341,-0.00019 -0.19141,-0.11719c-0.076,-0.078 -0.07617,-0.19556 -0.07617,-0.35156c0,-0.156 0.11486,-0.54781 0.38086,-1.13281c0.076,-0.195 0.30455,-0.70242 0.68555,-1.48242c-0.342,-0.468 -0.5332,-0.70325 -0.5332,-0.78125c-0.304,-0.429 -0.41797,-1.01386 -0.41797,-1.75586c0,-0.664 0.18948,-1.289 0.64648,-1.875c0.418,-0.625 0.95048,-0.93756 1.52148,-0.97656c0.418,-0.039 0.76241,0.07844 1.06641,0.27344c0.114,0.039 0.34148,0.19575 0.64648,0.46875c0.114,-0.312 0.30331,-0.54713 0.57031,-0.70312c0.076,-0.039 0.19086,-0.07819 0.38086,-0.11719zM28.5957,32.19727h0.07617c0.418,0.468 0.83591,0.9363 1.25391,1.4043c0.418,0.508 0.83786,0.97738 1.25586,1.48438c0,-0.039 -0.00089,-0.11731 0.03711,-0.19531c0.038,-0.078 0.03817,-0.11725 0.07617,-0.15625c0.038,-0.078 0.11345,-0.11731 0.18945,-0.19531c0,0.039 0.03817,0.07819 0.07617,0.11719c-0.038,0.077 -0.07528,0.19361 -0.11328,0.34961c-0.038,0.156 -0.03906,0.31181 -0.03906,0.50781v1.99219v1.99023c-0.114,0.039 -0.22691,0.11731 -0.37891,0.19531c-0.152,0.078 -0.2658,0.15637 -0.3418,0.23438c-0.076,0.039 -0.15162,0.11542 -0.26562,0.23242c-0.114,0.078 -0.19158,0.19544 -0.26758,0.27344c-0.228,-0.273 -0.49466,-0.50713 -0.72266,-0.70312c-0.114,-0.078 -0.22691,-0.15631 -0.37891,-0.19531c-0.114,-0.078 -0.26597,-0.15436 -0.41797,-0.19336v-0.07812l-0.03906,-0.03906c0.076,-0.078 0.11523,-0.15631 0.11523,-0.19531c0.076,-0.234 0.11328,-0.46819 0.11328,-0.74219v-1.52148v-1.5625c0.038,0 0.11452,-0.03912 0.22852,-0.07812c0.076,0 0.15145,-0.03717 0.18945,-0.07617l0.22852,-0.11719c0.076,-0.078 0.11239,-0.15638 0.15039,-0.23438c-0.342,-0.39 -0.68339,-0.78187 -1.02539,-1.17187zM21.63281,32.97852c-0.38,0.039 -0.72352,0.27306 -1.10352,0.66406c-0.342,0.468 -0.5332,0.97542 -0.5332,1.48242c0,0.429 0.03834,0.82088 0.15234,1.17188c0.114,0.312 0.34237,0.62342 0.60937,0.85742c0.229,-0.392 0.41938,-0.821 0.60938,-1.25c0.19,-0.39 0.38037,-0.82094 0.60937,-1.21094c-0.076,-0.078 -0.11541,-0.15631 -0.19141,-0.19531c-0.038,-0.078 -0.11256,-0.07617 -0.22656,-0.07617c-0.266,0 -0.49555,0.23406 -0.68555,0.66406v-0.15625c0,-0.273 0.07652,-0.54725 0.22852,-0.78125c0.19,-0.234 0.38038,-0.39062 0.60938,-0.39063h0.3418c0.114,0.039 0.18873,0.07813 0.30273,0.07813c0.076,-0.117 0.15252,-0.27369 0.22852,-0.42969c-0.076,-0.117 -0.22797,-0.23255 -0.41797,-0.31055c-0.152,-0.078 -0.3422,-0.11719 -0.5332,-0.11719zM10.33594,33.44336c0.076,0.039 0.15145,0.07819 0.18945,0.11719c-0.114,0.429 -0.26597,0.89912 -0.41797,1.32813c-0.152,0.468 -0.30308,0.89723 -0.45508,1.36523c0.076,-0.039 0.11345,-0.03906 0.18945,-0.03906c0.038,-0.039 0.11345,-0.03912 0.18945,-0.07812c0.571,-0.117 1.02731,-0.03862 1.44531,0.23438c0.494,0.351 0.76172,0.97505 0.76172,1.87305c0,0.547 -0.11469,1.05562 -0.30469,1.64063c-0.19,0.468 -0.45583,0.97542 -0.79883,1.48242c-0.304,0.429 -0.64645,0.86019 -1.06445,1.36719c-0.114,-0.039 -0.22886,-0.07825 -0.38086,-0.15625c-0.152,-0.078 -0.22762,-0.11719 -0.26562,-0.11719c-0.19,-0.078 -0.3422,-0.11725 -0.5332,-0.15625c-0.304,0.351 -0.56994,0.6645 -0.83594,0.9375c-0.342,0.351 -0.647,0.58606 -0.875,0.66406c-0.342,0.156 -0.647,0.11681 -0.875,-0.11719c-0.19,-0.234 -0.30469,-0.46831 -0.30469,-0.82031c0,-0.39 0.1138,-0.81898 0.3418,-1.20898c0.228,-0.429 0.49572,-0.70325 0.76172,-0.78125c0.228,-0.078 0.4182,-0.15625 0.5332,-0.15625c0.114,-0.039 0.22797,-0.03906 0.41797,-0.03906c0.076,-0.273 0.11345,-0.50719 0.18945,-0.74219c-0.418,0.117 -0.72406,0.19537 -0.91406,0.23438c-0.152,0 -0.34114,-0.03912 -0.49414,-0.07812c-0.19,-0.117 -0.34197,-0.27375 -0.41797,-0.46875c-0.076,-0.234 -0.15234,-0.50737 -0.15234,-0.85937c0,-0.312 0.07545,-0.62355 0.18945,-0.93555c0.114,-0.351 0.30509,-0.62531 0.49609,-0.82031c0,-0.39 0.07545,-0.78181 0.18945,-1.13281c0.114,-0.273 0.2672,-0.66292 0.5332,-1.16992c0.228,-0.468 0.49466,-0.89906 0.72266,-1.28906c0.57,0.195 1.13994,0.429 1.71094,0.625c0.076,-0.234 0.15252,-0.46813 0.22852,-0.70312zM22.77539,33.64063c-0.228,0.507 -0.49572,1.01455 -0.76172,1.56055c-0.228,0.506 -0.49366,1.0545 -0.72266,1.5625c0.571,-0.039 1.14189,-0.07812 1.71289,-0.07812v-1.36719v-1.32617zM27.14844,34.14648c0.228,0.273 0.45548,0.54738 0.64648,0.85938c0.152,-0.195 0.26686,-0.35181 0.38086,-0.50781c0.038,0.078 0.07528,0.11725 0.11328,0.15625c-0.19,0.312 -0.30469,0.50787 -0.30469,0.54688c-0.076,0.117 -0.07617,0.23463 -0.07617,0.39063v1.64063v1.67773c0,0.117 0.00106,0.2345 0.03906,0.3125c0,0.078 0.03728,0.11719 0.11328,0.11719l0.15234,-0.07812l0.11328,-0.11719c0.038,0.078 0.11434,0.11731 0.15234,0.19531c-0.303,0.311 -0.56905,0.62355 -0.87305,0.93555c-0.19,-0.156 -0.34197,-0.351 -0.41797,-0.625c-0.038,-0.117 -0.07617,-0.19355 -0.07617,-0.31055v-0.66406c0,-0.508 -0.03711,-0.97738 -0.03711,-1.48437v-1.52148c-0.114,-0.195 -0.26597,-0.38994 -0.41797,-0.58594c-0.19,0.234 -0.37931,0.42906 -0.57031,0.66406v1.63867c0,0.547 0.03711,1.09363 0.03711,1.64063c0.076,0.117 0.15162,0.23456 0.26563,0.35156c-0.266,0.312 -0.49466,0.58442 -0.72266,0.85742c-0.228,-0.273 -0.45548,-0.54542 -0.64648,-0.85742c0.076,-0.117 0.15162,-0.27363 0.26563,-0.39062v-1.64062c0,-0.507 -0.03906,-1.05361 -0.03906,-1.59961c0,-0.195 0.00089,-0.31269 -0.03711,-0.42969c0,-0.117 -0.07634,-0.15625 -0.15234,-0.15625c-0.038,0 -0.07634,0.03912 -0.15234,0.07813l-0.03711,0.03906c-0.038,-0.039 -0.07528,-0.11725 -0.11328,-0.15625c0.266,-0.351 0.53283,-0.66261 0.79883,-0.97461c0.152,0.156 0.26491,0.31188 0.37891,0.54687c0.038,0.156 0.11523,0.34992 0.11523,0.54492c0,0.078 0.03711,0.15644 0.03711,0.27344c0.152,-0.156 0.26597,-0.31181 0.41797,-0.50781c0.038,-0.039 0.11345,-0.11738 0.18945,-0.23437c0.266,-0.39 0.41903,-0.586 0.45703,-0.625zM32.62891,34.38477c0.076,0.078 0.15145,0.15638 0.18945,0.23438c0.038,0.039 0.07528,0.11744 0.11328,0.27344c0.076,0.078 0.11434,0.19361 0.15234,0.34961c0.038,0.156 0.03711,0.27362 0.03711,0.39062c0.304,-0.39 0.61006,-0.77992 0.91406,-1.16992c0.19,0.429 0.41837,0.81905 0.60938,1.24805c-0.192,0.232 -0.42133,0.46516 -0.61133,0.66016c-0.19,-0.273 -0.34114,-0.54542 -0.49414,-0.85742c-0.152,0.117 -0.26597,0.23261 -0.41797,0.34961v1.67969v1.67969c0.152,0.156 0.26597,0.35088 0.41797,0.54688c0.114,-0.117 0.2278,-0.1955 0.3418,-0.3125c0.038,0.078 0.11434,0.15637 0.15234,0.23438c-0.19,0.195 -0.34125,0.35088 -0.53125,0.54688c-0.152,0.195 -0.30592,0.35088 -0.41992,0.54688c-0.076,-0.117 -0.15163,-0.23456 -0.26562,-0.35156c-0.114,-0.156 -0.22673,-0.27167 -0.30273,-0.38867c-0.114,-0.117 -0.19052,-0.19544 -0.22852,-0.27344c-0.076,-0.039 -0.15163,-0.11731 -0.26562,-0.19531c0.114,-0.117 0.18856,-0.23456 0.22656,-0.35156c0.038,-0.117 0.03906,-0.31194 0.03906,-0.58594v-1.32617v-1.32812v-0.27148c0,-0.078 -0.00106,-0.15637 -0.03906,-0.23437c0,-0.039 -0.03728,-0.07812 -0.11328,-0.07812c-0.038,0 -0.07528,0.03912 -0.11328,0.07813c0,0.039 -0.03817,0.03919 -0.07617,0.11719c-0.038,-0.078 -0.07723,-0.15631 -0.11523,-0.19531c0.266,-0.351 0.53478,-0.70363 0.80078,-1.01562zM18.05859,34.53711c0.228,0.234 0.45548,0.50825 0.64648,0.78125c0.152,-0.195 0.26686,-0.35088 0.38086,-0.54687c0.038,0.039 0.07528,0.11725 0.11328,0.15625c-0.19,0.351 -0.30469,0.50787 -0.30469,0.54688c-0.076,0.117 -0.07617,0.27173 -0.07617,0.42773v1.64063v1.67969c0,0.156 0.03906,0.23255 0.03906,0.31055c0.038,0.078 0.07528,0.11719 0.11328,0.11719c0,0 0.07634,-0.03919 0.15234,-0.11719l0.11328,-0.11523l0.15234,0.1543c-0.266,0.352 -0.56994,0.74275 -0.83594,1.09375c-0.19,-0.117 -0.34108,-0.31188 -0.45508,-0.54687c-0.038,-0.117 -0.03817,-0.23456 -0.07617,-0.35156v-0.625c0,-0.508 -0.03906,-1.01448 -0.03906,-1.52148v-1.56055c-0.152,-0.156 -0.26597,-0.35088 -0.41797,-0.54687c-0.19,0.273 -0.37931,0.50725 -0.57031,0.78125v1.67773c0,0.547 0.03711,1.09369 0.03711,1.67969c0.076,0.078 0.15358,0.1955 0.26758,0.3125c-0.228,0.351 -0.49661,0.66261 -0.72461,0.97461c-0.228,-0.234 -0.41748,-0.50719 -0.64649,-0.74219c0.076,-0.156 0.18963,-0.3108 0.26563,-0.4668v-1.67969c0,-0.547 -0.03711,-1.13269 -0.03711,-1.67969c0,-0.195 -0.00106,-0.31074 -0.03906,-0.42773c0,-0.117 -0.07439,-0.15625 -0.15039,-0.15625c-0.038,0 -0.07634,0.03912 -0.15234,0.07813c0,0.039 -0.03906,0.03912 -0.03906,0.07813c-0.038,-0.039 -0.07528,-0.11725 -0.11328,-0.15625c0.266,-0.351 0.53183,-0.74275 0.79883,-1.09375c0.152,0.117 0.30486,0.31281 0.38086,0.50781c0.076,0.156 0.11328,0.35088 0.11328,0.54688c0,0.078 0.03711,0.15644 0.03711,0.27344c0.152,-0.156 0.26597,-0.35088 0.41797,-0.54687c0.038,-0.039 0.11541,-0.15644 0.19141,-0.27344c0.266,-0.429 0.41803,-0.62506 0.45703,-0.66406zM36.20313,34.69531c0.38,0.703 0.76062,1.36536 1.14063,2.06836c-0.267,0.272 -0.49572,0.5063 -0.76172,0.7793c-0.266,0.273 -0.53177,0.54738 -0.75977,0.85938v1.4043c0.228,0.195 0.41748,0.38994 0.64648,0.58594c0.19,-0.156 0.37931,-0.3108 0.57031,-0.4668c0.038,0.078 0.07634,0.15449 0.15234,0.27148c-0.19,0.117 -0.26473,0.19537 -0.30273,0.23438c-0.114,0.078 -0.19158,0.15638 -0.26758,0.23438c-0.228,0.234 -0.41642,0.42906 -0.60742,0.66406c-0.076,-0.078 -0.15269,-0.19556 -0.30469,-0.35156c-0.114,-0.117 -0.22869,-0.23444 -0.30469,-0.27344c-0.076,-0.078 -0.18891,-0.15442 -0.37891,-0.23242c-0.038,-0.039 -0.11345,-0.07819 -0.18945,-0.11719c-0.038,-0.078 -0.03906,-0.11725 -0.03906,-0.15625c0.076,-0.117 0.15145,-0.23456 0.18945,-0.35156c0.038,-0.117 0.03906,-0.31194 0.03906,-0.58594v-1.79492v-1.79687l0.37891,-0.19531c0.038,-0.039 0.07741,-0.07825 0.19141,-0.15625c0.114,-0.117 0.18856,-0.15631 0.22656,-0.19531c0,0 0.11486,-0.15473 0.38086,-0.42773zM8.32031,34.84961c-0.19,0.039 -0.34214,0.1565 -0.49414,0.3125c-0.19,0.234 -0.26562,0.50731 -0.26562,0.82031c0,0.234 0.03834,0.42894 0.15234,0.58594c0.152,0.195 0.37959,0.27331 0.68359,0.19531c0.266,-0.078 0.4182,-0.11725 0.5332,-0.15625c0.114,-0.078 0.26508,-0.15644 0.45508,-0.27344c0.114,-0.312 0.19069,-0.58544 0.30469,-0.89844c-0.228,-0.234 -0.49466,-0.3888 -0.72266,-0.4668c-0.265,-0.118 -0.45648,-0.15814 -0.64648,-0.11914zM29.88867,34.92773c-0.114,0.118 -0.19069,0.23456 -0.30469,0.35156c0,0.585 0.03711,1.16986 0.03711,1.75586v1.71875c0.152,0.117 0.3422,0.23456 0.5332,0.35156l0.45703,0.34961v-1.83398v-1.83594c-0.228,-0.312 -0.49466,-0.58442 -0.72266,-0.85742zM14.02539,35.00781c0.38,0.195 0.76062,0.35088 1.14063,0.54688c0.076,-0.117 0.18962,-0.23456 0.26563,-0.35156c0.038,0 0.07723,0.03906 0.11523,0.03906c-0.114,0.351 -0.22958,0.54706 -0.26758,0.66406c-0.038,0.195 -0.07617,0.38994 -0.07617,0.58594v1.64062v1.59961c0,0.078 0.03817,0.19544 0.07617,0.27344c0.038,0.078 0.07634,0.11517 0.15234,0.07617c0.038,0 0.07617,-0.03717 0.07617,-0.07617c0.038,0 0.03906,-0.03912 0.03906,-0.07812c0.038,0.078 0.07439,0.1153 0.15039,0.1543c-0.265,0.388 -0.49181,0.77892 -0.75781,1.16992c-0.076,-0.039 -0.15252,-0.11731 -0.22851,-0.19531c-0.038,-0.078 -0.11434,-0.1955 -0.15234,-0.3125c-0.114,-0.195 -0.15234,-0.46636 -0.15234,-0.81836v-0.03906c-0.38,0.586 -0.76062,1.16986 -1.14062,1.75586l-0.03711,0.03906c-0.228,-0.273 -0.38109,-0.50825 -0.49609,-0.78125c-0.076,-0.273 -0.15234,-0.58449 -0.15234,-0.89648c0,-0.39 0.07652,-0.821 0.22852,-1.25c0.114,-0.39 0.34148,-0.85817 0.64648,-1.32617c-0.152,-0.547 -0.30403,-1.13275 -0.45703,-1.71875c0,-0.039 0.03817,-0.07819 0.07617,-0.11719c0.038,0 0.11434,-0.03906 0.15234,-0.03906c0.076,0 0.15163,-0.03912 0.26563,-0.07812c0.076,-0.039 0.19051,-0.07819 0.22851,-0.11719c0.076,-0.039 0.11434,-0.07825 0.15234,-0.15625c0.076,-0.039 0.11434,-0.11536 0.15234,-0.19336zM43.69922,35.04688c0.076,0.039 0.15252,0.11542 0.22852,0.23242c0.035,0.116 0.07227,0.31181 0.07227,0.50781c0,0.156 -0.03817,0.31275 -0.07617,0.46875c-0.038,0.156 -0.11345,0.34992 -0.18945,0.54492c-0.304,0.625 -0.609,1.21088 -0.875,1.79688c0.266,0.351 0.56994,0.7018 0.83594,1.0918v1.44531v1.44336c-0.076,0 -0.18962,0.03912 -0.26562,0.07813c-0.114,0 -0.18874,0.03919 -0.30273,0.11719c-0.114,0.078 -0.19069,0.15644 -0.30469,0.27344c-0.114,0.117 -0.19052,0.19348 -0.22852,0.27148c-0.152,-0.234 -0.26597,-0.38988 -0.41797,-0.54687c-0.114,-0.156 -0.26491,-0.23255 -0.37891,-0.31055c-0.114,-0.039 -0.19052,-0.03912 -0.22852,-0.07813c-0.19,-0.039 -0.30397,-0.039 -0.41797,0c-0.114,0.039 -0.22869,0.15449 -0.30469,0.27148c-0.076,-0.078 -0.11434,-0.19349 -0.15234,-0.27148c0.19,-0.351 0.38127,-0.70375 0.57227,-1.09375c0.19,-0.351 0.37931,-0.74275 0.57031,-1.09375c-0.304,-0.39 -0.57189,-0.74086 -0.83789,-1.13086v-2.30273c0.076,0 0.19158,-0.03919 0.26758,-0.11719c0.152,-0.117 0.22673,-0.19544 0.30273,-0.27344c0.038,-0.039 0.15252,-0.1565 0.22852,-0.3125c0.076,-0.117 0.15252,-0.23267 0.22852,-0.38867c0.228,0.273 0.45548,0.50517 0.64648,0.70117c0.19,0.195 0.38109,0.31256 0.49609,0.35156c0.152,0.039 0.26491,-0.00013 0.37891,-0.07812c0.114,-0.117 0.18945,-0.23273 0.18945,-0.42773c0,0 -0.07439,-0.15669 -0.15039,-0.42969c-0.038,-0.117 -0.07617,-0.23456 -0.07617,-0.35156c0,-0.117 -0.00089,-0.19544 0.03711,-0.27344c0.038,-0.078 0.07634,-0.11523 0.15234,-0.11523zM39.05469,35.12305c0.38,0.312 0.76062,0.62556 1.14062,0.97656c0.076,-0.117 0.19158,-0.1955 0.26758,-0.3125l0.11328,0.11719c-0.114,0.312 -0.22762,0.54606 -0.26562,0.66406c-0.038,0.195 -0.07617,0.38994 -0.07617,0.58594v1.83594v1.79492c0,0.117 0.03817,0.23456 0.07617,0.35156c0.038,0.117 0.07528,0.15631 0.11328,0.19531c0.038,0 0.07528,-0.00006 0.11328,-0.03906c0,0 0.03906,-0.03912 0.03906,-0.07812l0.11328,0.23438c-0.228,0.31 -0.4927,0.62355 -0.7207,0.93555c-0.114,-0.117 -0.19052,-0.23463 -0.22852,-0.39062c-0.076,-0.117 -0.11345,-0.27362 -0.18945,-0.39062c-0.076,-0.312 -0.11523,-0.62361 -0.11523,-0.97461v-0.07812c-0.38,0.468 -0.76062,0.89717 -1.14062,1.32617l-0.07617,-0.03906c-0.228,-0.351 -0.38003,-0.70363 -0.45703,-1.01562c-0.114,-0.351 -0.15234,-0.66267 -0.15234,-1.01367c0,-0.39 0.07652,-0.78187 0.22852,-1.17187c0.114,-0.39 0.34148,-0.77986 0.64648,-1.13086c-0.152,-0.664 -0.30308,-1.32819 -0.45508,-1.99219c0.038,-0.039 0.03817,-0.07819 0.07617,-0.11719c0.076,0.039 0.11434,0.03906 0.15234,0.03906h0.26563c0.114,0 0.19051,-0.00006 0.22852,-0.03906c0.076,-0.039 0.11345,-0.07819 0.18945,-0.11719c0.038,-0.039 0.07528,-0.07825 0.11328,-0.15625zM35.82227,35.5918v2.3418c0.266,-0.273 0.53183,-0.54738 0.79883,-0.85937c-0.266,-0.468 -0.53283,-0.97542 -0.79883,-1.48242zM38.29492,35.78711c0.113,0.546 0.18969,1.09267 0.30469,1.63867c0.266,0.312 0.53194,0.58644 0.83594,0.89844v-1.56055c-0.38,-0.351 -0.76062,-0.66456 -1.14062,-0.97656zM13.26563,35.86523c0.076,0.508 0.18873,0.97536 0.30273,1.44336c0.266,0.195 0.53389,0.35181 0.83789,0.50781c0,-0.468 -0.03906,-0.93831 -0.03906,-1.44531c-0.38,-0.156 -0.72056,-0.31086 -1.10156,-0.50586zM41.75781,36.88086v1.83398c0.152,0.195 0.34114,0.429 0.49414,0.625c0.304,-0.586 0.609,-1.16992 0.875,-1.79492h-0.30469c-0.116,-0.001 -0.22958,-0.00202 -0.26758,-0.04102c-0.114,0 -0.26491,-0.07831 -0.37891,-0.19531c-0.114,-0.117 -0.26597,-0.23273 -0.41797,-0.42773zM10.43555,37.33594c-0.10406,0.00486 -0.21387,0.02153 -0.32812,0.05078c-0.152,0 -0.26597,0.03912 -0.41797,0.07813c-0.152,0.039 -0.30308,0.11731 -0.45508,0.19531c-0.114,0.273 -0.18962,0.54731 -0.26562,0.82031c0.152,-0.078 0.30397,-0.11725 0.41797,-0.15625c0.114,-0.039 0.22691,-0.07819 0.37891,-0.11719c0.076,0 0.11523,-0.03906 0.11523,-0.03906c0.266,-0.039 0.53177,-0.03894 0.75977,0.03906c0.304,0.117 0.49414,0.39031 0.49414,0.82031c0,0.312 -0.07563,0.66456 -0.26562,0.97656c-0.152,0.234 -0.41783,0.58461 -0.79883,0.97461c0.228,0.078 0.49366,0.15638 0.72266,0.23438c0.19,-0.234 0.41731,-0.62575 0.57031,-1.09375c0.19,-0.507 0.26758,-0.89705 0.26758,-1.24805c0,-0.547 -0.15197,-0.977 -0.41797,-1.25c-0.20025,-0.2055 -0.46516,-0.29973 -0.77734,-0.28516zM7.02734,37.34766c-0.038,0.117 -0.11328,0.23255 -0.11328,0.31055c-0.076,0.117 -0.07617,0.27369 -0.07617,0.42969c0,0.351 0.07652,0.62525 0.22852,0.78125c0.19,0.195 0.53228,0.23412 0.98828,0.07813c0.114,-0.039 0.19069,-0.07819 0.30469,-0.11719c0.075,-0.038 0.18873,-0.11536 0.30273,-0.19336c0.114,-0.273 0.19158,-0.58637 0.26758,-0.85937c-0.114,0.078 -0.22886,0.11731 -0.38086,0.19531c-0.152,0.078 -0.2658,0.11725 -0.3418,0.15625c-0.228,0.078 -0.45548,0.03881 -0.64648,-0.11719c-0.152,-0.117 -0.3052,-0.35106 -0.5332,-0.66406zM23.00391,37.50391c-0.686,0.039 -1.40786,0.07819 -2.13086,0.11719c-0.114,0.234 -0.19069,0.42906 -0.30469,0.66406c0.609,0.312 1.21806,0.66463 1.78906,1.01563c0.228,-0.273 0.45655,-0.50819 0.68555,-0.74219c0,-0.351 -0.03906,-0.70369 -0.03906,-1.05469zM13.53125,37.54492c-0.075,0.194 -0.11434,0.42811 -0.15234,0.66211c-0.038,0.273 -0.03711,0.50819 -0.03711,0.74219c0,0.351 0.03728,0.62537 0.11328,0.85938c0.076,0.234 0.1898,0.42906 0.3418,0.66406c0.19,-0.312 0.41837,-0.58644 0.60938,-0.89844v-1.48242c-0.304,-0.195 -0.571,-0.35088 -0.875,-0.54687zM38.56055,37.66016c-0.037,0.196 -0.11434,0.39106 -0.15234,0.66406c-0.038,0.234 -0.03906,0.50819 -0.03906,0.74219c0,0.351 0.03923,0.6645 0.11523,0.9375c0.038,0.273 0.1518,0.58442 0.3418,0.85742c0.19,-0.195 0.38038,-0.39 0.60938,-0.625v-1.63867c-0.304,-0.312 -0.571,-0.6255 -0.875,-0.9375zM10.08984,39.39258c-0.0665,0.00487 -0.15305,0.0235 -0.24805,0.0625c-0.342,0.078 -0.57066,0.15631 -0.72266,0.19531c-0.114,0.078 -0.34131,0.1565 -0.57031,0.3125c-0.114,0.234 -0.19052,0.50725 -0.22852,0.78125c0.456,0.039 0.95025,0.11725 1.40625,0.15625c0.114,-0.078 0.22886,-0.23481 0.38086,-0.50781c0.153,-0.273 0.22851,-0.46794 0.22852,-0.58594c0,-0.195 -0.03728,-0.34967 -0.11328,-0.38867c-0.019,-0.0195 -0.06631,-0.03027 -0.13281,-0.02539zM42.43945,39.49414c-0.342,0.664 -0.68328,1.28906 -0.98828,1.91406h0.30469c0.114,0.039 0.2278,0.03912 0.3418,0.07813c0.304,0.117 0.571,0.35125 0.875,0.78125v-2.03125c-0.19,-0.234 -0.3432,-0.46819 -0.5332,-0.74219zM7.71289,42.10938c-0.343,0.001 -0.57172,0.08014 -0.76172,0.11914c-0.114,0.078 -0.26686,0.15455 -0.38086,0.31055c-0.114,0.117 -0.15039,0.27375 -0.15039,0.46875c0,0.234 0.07456,0.38987 0.22656,0.54688c0.152,0.117 0.30509,0.15613 0.49609,0.07812c0.342,-0.156 0.64611,-0.39012 0.91211,-0.70312c0.076,-0.078 0.2672,-0.31206 0.5332,-0.66406c-0.266,-0.117 -0.57,-0.15625 -0.875,-0.15625z"></path></g></g></svg>