<svg xmlns="http://www.w3.org/2000/svg" xmlns:xlink="http://www.w3.org/1999/xlink" viewBox="0,0,256,256" width="100px" height="100px" fill-rule="nonzero"><g fill="#ffa500" fill-rule="nonzero" stroke="none" stroke-width="1" stroke-linecap="butt" stroke-linejoin="miter" stroke-miterlimit="10" stroke-dasharray="" stroke-dashoffset="0" font-family="none" font-weight="none" font-size="none" text-anchor="none" style="mix-blend-mode: normal"><g transform="scale(5.12,5.12)"><path d="M32.08984,4v2.00391c-0.31,0.006 -0.59719,0.04237 -0.86719,0.10938c-0.316,0.078 -0.60219,0.20352 -0.86719,0.35352c-0.482,-0.277 -1.01008,-0.44489 -1.58008,-0.46289c-0.067,-0.002 -10.43945,-0.00195 -10.43945,-0.00195c-0.624,0 -1.19975,0.17352 -1.71875,0.47852c-0.526,-0.306 -1.10461,-0.48047 -1.72461,-0.48047l-10.51562,0.00195c-0.762,0.001 -1.48761,0.24227 -2.09961,0.69727c-0.823,0.612 -1.27734,1.51402 -1.27734,2.54102v12.50781h6v4.00391h1l0.00586,3.29102c0.023,0.335 0.0967,0.65513 0.2207,0.95313l0.00195,0.00391h-0.35352h-3.52539c-0.787,0 -1.53306,0.26367 -2.16406,0.76367c-0.771,0.611 -1.17364,1.48584 -1.18164,2.46484c-0.004,0.524 0.00195,6.57031 0.00195,6.57031c-0.005,1.065 0.46152,1.74972 0.85352,2.13672c0.702,0.692 1.56505,1.0595 2.49805,1.0625c0,0 9.54911,-0.00105 10.03711,0.00195c0.725,0 1.38723,-0.22367 1.99023,-0.63867c0.584,0.405 1.26619,0.63177 1.99219,0.63477l3.15039,0.00391c0.682,0 1.30877,-0.18706 1.88477,-0.53906c0.565,0.348 1.20362,0.53906 1.89063,0.53906h3.89844l0.00781,-0.07812c0.055,-0.543 -0.04155,-1.00731 -0.31055,-1.44531c-0.089,-0.156 -0.15117,-0.31461 -0.20117,-0.47461h-3.38867c-0.462,0.002 -0.85464,-0.16609 -1.18164,-0.49609c-0.168,-0.169 -0.25195,-0.37609 -0.25195,-0.62109c0.001,-2.254 0.001,-4.50872 0,-6.76172c0,-0.218 0.06617,-0.40927 0.20117,-0.57227c0.283,-0.341 0.64298,-0.54483 1.08398,-0.54883l2.67773,0.00391v-1.00586h17.16797c0.641,-0.605 1.00214,-1.40641 0.99414,-2.31641v-9.18164l-3.38477,-0.00195v-0.87109l-3.86523,-0.00195v-14.62695zM34.08984,6h2.66016v11h-4.60742c-0.385,0.001 -0.71953,-0.12823 -1.01953,-0.36523c-0.25,-0.198 -0.37509,-0.45511 -0.37109,-0.78711v-6.56055c0,-0.647 0.32922,-1.07942 0.94922,-1.23242c0.142,-0.035 0.29245,-0.05173 0.43945,-0.05273l1.94922,-0.00195zM10,8h4.89258c0.453,0 0.82095,0.19262 1.12695,0.51563c0.162,0.172 0.22752,0.38423 0.22852,0.61523c0.003,0.92 0.00291,1.83977 0.00391,2.75977c0,0.182 -0.07761,0.31987 -0.22461,0.42188c-0.032,0.023 -0.06395,0.04537 -0.12695,0.10938c0.024,0.006 0.05036,0.00358 0.06836,0.01758c0.157,0.115 0.23967,0.2758 0.26367,0.4668c0.011,0.091 0.01953,0.18339 0.01953,0.27539c0.001,0.975 0,3.67153 0,5.26953h3.47852c0.001,0.553 0,2.20441 0,2.56641c0.706,0 1.49473,-0.00105 1.92773,0.00195c0.443,0.003 0.81528,0.17495 1.11328,0.50195c0.153,0.168 0.22742,0.3697 0.23242,0.5957c-0.003,0.04 -0.00391,7.88281 -0.00391,7.88281h-2.5918v-6.6543h-0.68164l0.00195,6.65625h-2.71875v-9.25195h-2.19336c-0.426,0 -0.78203,-0.16403 -1.08203,-0.45703c-0.19,-0.184 -0.27834,-0.40773 -0.27734,-0.67773c0.001,-0.202 0,-0.46023 0,-0.74023c0.001,-1.892 0,-5.18781 0,-5.25781h-0.67578v4.37695h-2.78125zM21.77539,8c0.392,-0.001 0.72372,0.14234 1.01172,0.40234c0.212,0.191 0.33094,0.43647 0.33594,0.73047v7.86523c-1.46176,0 -3.36786,-0.00204 -4.69531,0.00195c-0.395,0.002 -0.73897,-0.12309 -1.04297,-0.37109c-0.25,-0.204 -0.38677,-0.46664 -0.38477,-0.80664c0.007,-1.094 0.00595,-2.19016 0.00195,-3.28516c-0.001,-0.259 0.08381,-0.47139 0.25781,-0.65039c0.327,-0.338 0.7105,-0.53048 1.1875,-0.52149l1.93164,0.00195v-1.10156h-0.64258v0.50586h-2.73242v-1.66016c0,-0.243 0.09095,-0.45105 0.25195,-0.62305c0.293,-0.313 0.64813,-0.48633 1.07813,-0.48633c1.147,0.001 2.29441,0.00205 3.44141,-0.00195zM4.37891,8.00195c1.446,-0.001 4.86719,0 4.86719,0c0,3.857 0.00391,8.50559 0.00391,10.55859c0,0.366 -0.15359,0.6347 -0.43359,0.8457c-0.311,0.234 -0.65978,0.34475 -1.05078,0.34375c-1.391,-0.004 -3.27695,-0.00391 -4.75195,-0.00391v-2.22266h3.44531v-0.55859h-1.93945c-0.368,0 -0.70662,-0.09187 -1.01563,-0.29687c-0.335,-0.221 -0.50391,-0.51569 -0.50391,-0.92969v-6.49805c0,-0.402 0.1557,-0.70155 0.4707,-0.93555c0.27,-0.201 0.5742,-0.30173 0.9082,-0.30273zM28.71289,8.00195c0.436,0.014 0.79008,0.21216 1.08008,0.53516c0.142,0.159 0.19903,0.35827 0.20703,0.57227v0.12109v7.76953h-2.73242l-0.00195,-6.73047h-0.66211l-0.00586,6.73047h-2.72266v-8.98437h2.72266v0.50781c0.034,-0.005 0.0515,-0.00077 0.0625,-0.00977c0.473,-0.342 1.01512,-0.458 1.57813,-0.5c0.157,-0.011 0.31661,-0.01572 0.47461,-0.01172zM33.41406,10.2207v4.60742h0.63086v-4.60742zM12.79297,10.25781v1.07227h0.63476v-1.07227zM5.80273,10.26172v4.47266h0.64453v-4.47266zM19.73242,13.62891v1.12305h0.62695v-1.12305zM9.99609,20h2.61914v1.49805c1.128,0 2.26477,0.00391 3.38477,0.00391v2.25h-3.34766v3.94727h0.64063v-1.68164v-1.69141h2.70703v4.37695c0.004,0.416 -0.1537,0.72298 -0.4707,0.95898c-0.299,0.222 -0.62605,0.3438 -0.99805,0.3418l-3.14453,-0.00586c-0.459,-0.002 -0.8452,-0.1813 -1.1582,-0.5293c-0.142,-0.158 -0.21156,-0.34559 -0.22656,-0.55859v-5.15625h-1.00195v-2.25586h0.99609zM37.99609,20.62695l2.61914,0.00195v0.87109c1.128,-0.002 2.26381,0.00195 3.38281,0.00195v2.25h-3.3457v3.94727h0.64063v-1.68164v-1.69141h2.70508v4.37695c0.004,0.416 -0.1537,0.72298 -0.4707,0.95898c-0.296,0.22 -0.61833,0.3418 -0.98633,0.3418h-0.01172h-3.14258c-0.459,-0.002 -0.8452,-0.18716 -1.1582,-0.53516c-0.142,-0.158 -0.21156,-0.34559 -0.22656,-0.55859v-5.15625h-0.75v-2.25586h0.74414zM25.30469,21c1.089,0.001 2.17662,0.002 3.26562,0c0.416,-0.001 0.7818,0.12316 1.0918,0.41016c0.225,0.207 0.33694,0.46039 0.33594,0.77539l-0.00195,4.44727h-3.38086v1.11523h0.64648v-0.55078h2.73633c0,0.527 -0.002,1.24969 0,1.67969c0.001,0.276 -0.10278,0.50364 -0.30078,0.68164c-0.313,0.283 -0.67656,0.44241 -1.10156,0.44141c-1.095,-0.002 -2.1892,-0.003 -3.2832,0c-0.404,0.002 -0.76027,-0.13067 -1.07227,-0.38867c-0.242,-0.199 -0.36523,-0.45339 -0.36523,-0.77539v-6.66406c0,-0.299 0.11122,-0.54705 0.32422,-0.74805c0.312,-0.295 0.68447,-0.42483 1.10547,-0.42383zM32.21289,21c1.011,0.005 3.92011,0.001 4.53711,0v2.25h-3.30664v0.55273h3.30664v2.19727h-3.30664v4h-2.69336v-7.16992c0,-0.217 0.001,-0.43434 0,-0.65234c-0.002,-0.306 0.11117,-0.55577 0.32617,-0.75977c0.323,-0.306 0.70672,-0.41897 1.13672,-0.41797zM26.61523,23.27344v1.08008h0.64453v-1.08008zM34.375,27h2.5v1.75c0,0.5 0.08303,0.81878 0.33203,1.17578c0.015,0.022 0.04297,0.07031 0.04297,0.07031l-2.875,0.00391zM16.99609,31.62305l2.62109,0.00391v0.87109c1.128,0 2.26477,0.00391 3.38477,0.00391v2.24805h-0.00195h-3.34766v3.94727h0.64063v-1.68164v-1.69141h2.70703v4.37695c0.004,0.416 -0.1537,0.72298 -0.4707,0.95898c-0.299,0.222 -0.62605,0.3438 -0.99805,0.3418l-3.14453,-0.00586c-0.459,-0.002 -0.8452,-0.1813 -1.1582,-0.5293c-0.142,-0.158 -0.21156,-0.34559 -0.22656,-0.55859v-5.15625h-0.75v-2.25586h0.74414zM4.3457,32c1.146,0.002 2.28955,0.002 3.43555,0c0.422,-0.001 0.77431,0.1648 1.07031,0.4668c0.184,0.188 0.27344,0.41859 0.27344,0.68359v7.84766c-1.487,0 -3.33477,0.003 -4.75977,0c-0.431,-0.002 -0.79456,-0.18238 -1.10156,-0.48437c-0.194,-0.191 -0.26077,-0.43803 -0.25977,-0.70703c0.002,-0.496 0.01509,-2.59349 -0.00391,-3.14648c-0.014,-0.425 0.16147,-0.72975 0.48047,-0.96875c0.284,-0.214 0.59608,-0.33022 0.95508,-0.32422h1.95508v-1.09961h-0.6543v0.52734h-2.73047c0,-0.522 0.00205,-1.21699 -0.00195,-1.58398c-0.004,-0.37 0.14283,-0.65786 0.42383,-0.88086c0.271,-0.214 0.57197,-0.33108 0.91797,-0.33008zM13.12305,32h2.62695v7.85352c0.002,0.314 -0.10503,0.56 -0.33203,0.75c-0.296,0.248 -0.62472,0.39848 -1.01172,0.39648c-1.065,-0.005 -2.12936,-0.00395 -3.19336,-0.00195c-0.435,0 -0.79961,-0.16995 -1.09961,-0.50195c-0.157,-0.174 -0.23633,-0.37905 -0.23633,-0.62305c0.001,-2.331 0,-5.39909 0,-7.87109c0.887,0.003 1.97919,0.00977 2.61719,0.00977v6.74219h0.62695zM41.88281,32c-0.001,0 0,1.05013 0,1.57813c0.054,0.003 0.09763,0.00481 0.14063,0.00781c0.251,0.021 0.501,0.03041 0.75,0.06641c0.33,0.046 0.64106,0.15356 0.91406,0.35156c0.22,0.159 0.34986,0.37158 0.38086,0.64258c0.042,0.363 -0.04092,0.70697 -0.16992,1.04297c-0.01,0.025 -0.02125,0.05212 -0.03125,0.07813c-0.89898,-0.20887 -1.86129,-0.35437 -2.92383,-0.42773c-0.376,-0.026 -0.73772,-0.02925 -1.13672,-0.03125h-0.12305h-0.08398c-0.405,0.002 -0.77048,0.00525 -1.14648,0.03125c-1.68,0.116 -3.13064,0.39447 -4.43164,0.85547c0.651,-0.23 1.33922,-0.41659 2.07422,-0.55859c0.735,-0.142 1.51547,-0.24083 2.35547,-0.29883c0.014,-0.001 0.02702,-0.00095 0.04102,-0.00195c-0.003,-0.013 -0.00777,-0.02606 -0.00977,-0.03906c-0.032,-0.174 -0.07689,-0.34939 -0.08789,-0.52539c-0.025,-0.431 0.13211,-0.77466 0.53711,-0.97266c0.114,-0.056 0.24028,-0.09595 0.36328,-0.12695c0.122,-0.03 0.24319,-0.04764 0.36719,-0.05664c0.045,-0.004 0.09172,-0.00386 0.13672,-0.00586c0.056,-0.002 0.11002,-0.00781 0.16602,-0.00781c0.038,0 0.07628,0.00095 0.11328,0.00195h0.19531v-1.59961h-11.43555v1.60547h0.39063h0.19141c0.322,0.001 0.61019,0.07017 0.86719,0.20117c0.257,0.131 0.48269,0.32426 0.67969,0.57227c0.18,0.228 0.36267,0.45713 0.51367,0.70313c0.328,0.538 0.63517,1.08681 0.95117,1.63281c0.026,0.045 0.05308,0.09262 0.08008,0.14063c-0.4868,0.26191 -0.92955,0.55383 -1.33398,0.88281c-0.487,0.397 -0.87369,0.81344 -1.17969,1.27344c-0.353,0.524 -0.59947,1.31689 -0.23047,1.96289c0.37,0.6 0.5145,1.28397 0.4375,2.04297l-0.00977,0.09766c-0.03,0.295 -0.05469,0.54791 -0.05469,1.00391c0,0.33 0.08075,0.65705 0.21875,0.87305c0.263,0.412 0.78059,0.44336 0.93359,0.44336c0.923,0 1.53713,-0.64189 1.70313,-0.83789c0.335,-0.396 0.49842,-0.83278 0.48242,-1.30078c0.068,0.025 0.1397,0.06038 0.2207,0.10938c0.016,0.01 0.05823,0.04008 0.11523,0.08008c0.79,0.561 1.36244,0.91016 1.77344,0.91016c0.304,0 0.54702,-0.11445 0.66602,-0.31445l0.02148,-0.03906c0.87265,1.65263 1.74684,3.30845 2.61523,4.95313h1.62109c0.80871,-1.75176 1.61708,-3.50489 2.42578,-5.25781l0.20508,0.34375c0.119,0.199 0.36202,0.31445 0.66602,0.31445c0.411,0 0.98344,-0.34916 1.77344,-0.91016c0.057,-0.041 0.09909,-0.06998 0.12109,-0.08398c0.079,-0.047 0.1498,-0.08147 0.2168,-0.10547c-0.015,0.471 0.14647,0.90578 0.48047,1.30078c0.167,0.197 0.78113,0.83789 1.70313,0.83789c0.152,0 0.67059,-0.03231 0.93359,-0.44531c0.138,-0.216 0.2207,-0.54109 0.2207,-0.87109c0,-0.456 -0.02664,-0.71086 -0.05664,-1.00586l-0.00977,-0.09766c-0.077,-0.76 0.06769,-1.44134 0.42969,-2.02734c0.378,-0.66 0.13039,-1.45347 -0.22461,-1.98047c-0.306,-0.456 -0.69073,-0.87253 -1.17773,-1.26953c-0.5767,-0.46926 -1.23173,-0.86396 -1.98047,-1.19922l0.00586,-0.01172c0.18,-0.334 0.34597,-0.677 0.54297,-1c0.191,-0.314 0.398,-0.62116 0.625,-0.91016c0.38,-0.48 0.86161,-0.82303 1.47461,-0.95703c0.302,-0.065 0.60702,-0.08613 0.91602,-0.07812c0.065,0.002 0.19727,0 0.19727,0v-1.58594zM26.61914,34.26367v4.48047h0.63281v-4.48047zM30.00195,34.8125v2.66797c0.174,-0.174 0.34487,-0.34767 0.54688,-0.51367c0.195,-0.159 0.39937,-0.30812 0.60938,-0.45312c-0.174,-0.304 -0.3473,-0.6092 -0.5293,-0.9082c-0.108,-0.177 -0.25325,-0.35969 -0.40625,-0.55469l-0.03711,-0.04687c-0.06,-0.076 -0.12059,-0.13841 -0.18359,-0.19141zM39.60156,35.80664h0.08203h0.12305c0.368,0.001 0.73551,0.0043 1.10352,0.0293c1.467,0.101 2.90687,0.33613 4.29688,0.82812c0.976,0.346 1.89027,0.80884 2.69727,1.46484c0.413,0.337 0.78213,0.71711 1.07813,1.16211c0.045,0.071 0.55694,0.83545 0.21094,1.43945c-0.416,0.674 -0.59095,1.45684 -0.50195,2.33984c0.033,0.329 0.06445,0.57274 0.06445,1.05273c0,0.219 -0.05358,0.46451 -0.14258,0.60352c-0.124,0.194 -0.42972,0.21289 -0.51172,0.21289c-0.576,0 -1.05627,-0.34716 -1.32227,-0.66016c-0.414,-0.489 -0.36942,-0.92088 -0.35742,-1.04687c0.007,-0.075 0.08263,-0.18164 0.26563,-0.18164c0.186,0 0.24045,0.07044 0.31445,0.14844c0.057,0.06 0.09916,0.1032 0.16016,0.1582c0.064,0.058 0.17172,0.09766 0.26172,0.09766c0.014,0 0.02802,0.00005 0.04102,-0.00195c0.056,-0.009 0.09647,-0.0387 0.10547,-0.0957c0.002,-0.016 -0.00272,-0.06598 -0.01172,-0.08398c-0.071,-0.151 -0.18222,-0.23341 -0.32422,-0.31641c-0.222,-0.128 -0.56311,-0.2168 -0.91211,-0.2168c-0.273,0 -0.53186,0.03323 -0.88086,0.24023c-0.118,0.07 -1.22581,0.91992 -1.63281,0.91992c-0.141,0 -0.22033,-0.04431 -0.23633,-0.07031c0.091,0 0.41003,-0.13248 0.70703,-0.52148c0.27,-0.353 0.46502,-0.75994 0.66602,-0.96094c0.267,-0.266 0.53399,-0.50977 1.20898,-0.50977c0.209,0 0.6492,0.10864 0.9082,0.30664c0.304,0.232 0.46845,0.43762 0.56445,0.64063c0.079,0.167 0.14197,0.33186 0.16797,0.50586c0.049,0.322 0.0442,0.59447 -0.0918,0.73047c-0.013,0.012 -0.10933,0.06736 -0.11133,0.06836c0.008,0.018 0.06684,0.02344 0.08984,0.02344h0.00391c0.182,-0.016 0.30859,-0.18603 0.30859,-0.45703c0,-0.279 -0.10327,-0.49361 -0.19727,-0.59961c0.094,-0.019 0.18502,-0.03759 0.29102,-0.05859c0.08,0.103 0.59981,0.64798 0.50781,1.33398c-0.022,0.164 -0.10736,0.26042 -0.19336,0.35742c0.146,-0.048 0.21391,-0.16287 0.25391,-0.29687c0.051,-0.174 0.05144,-0.35325 0.02344,-0.53125c-0.058,-0.383 -0.21245,-0.72411 -0.43945,-1.03711c-0.326,-0.449 -0.74012,-0.80252 -1.20312,-1.10352c-0.709,-0.461 -1.48492,-0.77195 -2.29492,-1.00195c-0.841,-0.239 -1.69841,-0.38447 -2.56641,-0.48047c-0.825,-0.091 -1.65051,-0.11619 -2.47852,-0.11719c-0.827,0.002 -1.65452,0.02619 -2.47852,0.11719c-0.869,0.095 -1.72641,0.24147 -2.56641,0.48047c-0.81,0.23 -1.58592,0.54095 -2.29492,1.00195c-0.463,0.301 -0.87712,0.65452 -1.20312,1.10352c-0.227,0.313 -0.3795,0.65411 -0.4375,1.03711c-0.028,0.178 -0.02952,0.35725 0.02148,0.53125c0.04,0.133 0.10691,0.24788 0.25391,0.29688c-0.086,-0.098 -0.16941,-0.19442 -0.19141,-0.35742c-0.092,-0.685 0.42781,-1.22998 0.50781,-1.33398c0.106,0.021 0.19506,0.03959 0.28906,0.05859c-0.094,0.107 -0.19727,0.32061 -0.19727,0.59961c0,0.27 0.12659,0.44103 0.30859,0.45703h0.00586c0.022,0 0.08184,-0.00544 0.08984,-0.02344c-0.002,-0.001 -0.10128,-0.05536 -0.11328,-0.06836c-0.136,-0.135 -0.13884,-0.40847 -0.08984,-0.73047c0.026,-0.174 0.08702,-0.33886 0.16602,-0.50586c0.096,-0.203 0.26045,-0.40863 0.56445,-0.64062c0.259,-0.197 0.6992,-0.30664 0.9082,-0.30664c0.675,0 0.94199,0.24477 1.20898,0.50977c0.201,0.201 0.39601,0.60794 0.66602,0.96094c0.297,0.389 0.61603,0.52148 0.70703,0.52148c-0.016,0.027 -0.09533,0.07031 -0.23633,0.07031c-0.407,0 -1.51481,-0.84992 -1.63281,-0.91992c-0.348,-0.207 -0.60786,-0.24023 -0.88086,-0.24023c-0.35,0 -0.69011,0.0888 -0.91211,0.2168c-0.143,0.083 -0.25227,0.16541 -0.32227,0.31641c-0.008,0.018 -0.01567,0.06698 -0.01367,0.08398c0.008,0.057 0.05142,0.0867 0.10742,0.0957c0.013,0.002 0.02506,0.00195 0.03906,0.00195c0.089,0 0.19772,-0.03966 0.26172,-0.09766c0.061,-0.055 0.10316,-0.0982 0.16016,-0.1582c0.074,-0.078 0.12745,-0.14844 0.31445,-0.14844c0.184,0 0.25962,0.10664 0.26563,0.18164c0.012,0.127 0.05658,0.55788 -0.35742,1.04688c-0.265,0.313 -0.74627,0.66016 -1.32227,0.66016c-0.082,0 -0.38772,-0.01889 -0.51172,-0.21289c-0.089,-0.139 -0.14062,-0.38452 -0.14062,-0.60352c0,-0.479 0.0295,-0.72273 0.0625,-1.05273c0.089,-0.883 -0.08595,-1.66584 -0.50195,-2.33984c-0.346,-0.604 0.16689,-1.3675 0.21289,-1.4375c0.296,-0.445 0.66512,-0.82511 1.07813,-1.16211c0.806,-0.656 1.72026,-1.11784 2.69727,-1.46484c1.39,-0.492 2.83087,-0.72713 4.29688,-0.82812c0.372,-0.026 0.74323,-0.02925 1.11523,-0.03125zM38.63867,36.49219c-0.53838,0.024 -1.06956,0.07203 -1.60156,0.14453c-0.092,0.013 -0.18339,0.02797 -0.27539,0.04297l-0.03516,0.00586v0.14844c0.028,0 0.05213,-0.00005 0.07813,0.00195c0.306,0.022 0.54683,0.25434 0.54883,0.52734c0.004,0.305 0.00291,0.46063 0.00391,0.76563l0.00195,0.41602c0.002,0.122 -0.03823,0.23584 -0.11523,0.33984c-0.124,0.167 -0.27803,0.2828 -0.45703,0.3418c-0.017,0.005 -0.03088,0.01063 -0.04687,0.01563v0.14062c0.858,-0.126 1.66075,-0.19584 2.46875,-0.21484c-0.001,-0.019 -0.00291,-0.12753 -0.00391,-0.14453c-0.396,-0.04 -0.63572,-0.29841 -0.63672,-0.69141c0,0 -0.00586,-0.56933 -0.00586,-0.98633c0,-0.285 0.20709,-0.72461 0.62109,-0.72461c0.244,0 0.42238,0.30101 0.48438,0.41602l1.03516,2.16211l0.79492,0.05469c0.028,-0.065 0.90784,-2.09002 0.96484,-2.16602c0.145,-0.196 0.34423,-0.21559 0.49023,-0.18359c0.376,0.084 0.39825,0.46278 0.40625,0.55078c0.005,0.061 0.00791,1.04686 0.00391,1.38086c-0.002,0.309 -0.14403,0.44727 -0.45703,0.44727h-0.16211v0.13867c0.79,0.098 1.7263,0.28363 3.1543,0.89063v-1.28125c-0.05,-0.021 -0.06949,-0.01161 -0.14648,0.02539c-0.055,0.026 -1.22656,0.60352 -1.22656,0.60352v-1.11523l0.61719,0.57617v-0.97656l-0.61719,0.23633v-1.10156c0,0 0.59463,0.57176 1.26563,1.25977c0.042,0.042 0.07238,0.06508 0.10938,0.08008v-0.95117c0,-0.038 -0.00311,-0.04364 -0.03711,-0.05664c-0.096,-0.037 -0.19111,-0.07623 -0.28711,-0.11523c-0.142,-0.058 -0.28274,-0.11502 -0.42773,-0.16602c-0.202,-0.071 -0.46605,-0.15222 -0.62305,-0.19922c-1.226,-0.37 -2.59623,-0.56572 -4.24023,-0.63672c-0.5635,-0.0255 -1.10811,-0.02595 -1.64648,-0.00195zM41.49414,36.7168c0.193,0.014 0.38244,0.11336 0.52344,0.31836c0.072,0.107 0.08697,0.23475 0.04297,0.34375l-0.55859,1.25391l-0.52148,-1.09766c-0.041,-0.092 -0.08305,-0.18339 -0.12305,-0.27539c-0.072,-0.167 -0.04802,-0.26591 0.08398,-0.37891c0.186,-0.156 0.37073,-0.17806 0.55273,-0.16406zM36.4668,36.72461l-0.28516,0.05078c-0.282,0.051 -0.56275,0.1002 -0.84375,0.1582c-0.788,0.16 -1.48953,0.39475 -2.14453,0.71875c-0.027,0.014 -0.0857,0.04169 -0.0957,0.05469c-0.001,0.006 0.00586,0.14453 0.00586,0.14453c0.187,-0.041 0.33922,-0.01959 0.44922,0.06641c0.115,0.091 0.17383,0.24784 0.17383,0.46484c0,0 0.00095,0.67958 0.00195,0.89258c0.001,0.394 -0.18297,0.70292 -0.54297,0.91992c-0.021,0.012 -0.05294,0.03083 -0.08594,0.04883v0.15039c0.908,-0.391 1.82578,-0.67514 2.80078,-0.86914v-0.14062c-0.017,0.001 -0.03564,0.002 -0.05664,0l-0.06445,-0.00391c-0.11,-0.005 -0.22589,-0.01102 -0.33789,-0.04102c-0.225,-0.061 -0.32812,-0.19673 -0.32812,-0.42773v-0.56055l0.63281,0.35156l0.00391,-0.96094l-0.63867,0.4707l0.00195,-1.07422l1.35352,0.75586zM5.74805,37.63281v1.12109h0.64258v-1.12109zM40.65234,40.63672h0.00195c0.398,0.013 0.76247,0.0325 1.10547,0.0625v0.00195l-0.55664,1.29883z"></path></g></g></svg>