<svg xmlns="http://www.w3.org/2000/svg" xmlns:xlink="http://www.w3.org/1999/xlink" viewBox="0,0,256,256" width="144px" height="144px" fill-rule="nonzero"><g fill="#ffa500" fill-rule="nonzero" stroke="none" stroke-width="1" stroke-linecap="butt" stroke-linejoin="miter" stroke-miterlimit="10" stroke-dasharray="" stroke-dashoffset="0" font-family="none" font-weight="none" font-size="none" text-anchor="none" style="mix-blend-mode: normal"><g transform="scale(5.33333,5.33333)"><path d="M27.2,14.4c0.8,-3.4 1.6,-5.6 1.6,-5.6l-6.6,-7.2l-0.1,7.9l-10.9,9.2l-2.8,-3.1l-2.6,10.2c0,0 6.8,7.8 5.5,13c4.5,2.5 12.1,6.8 12.1,6.8l16.5,-13.8l2.6,-7.8c0,0 -1.8,0.6 -2.2,-2.1c-1.2,-0.1 -1.6,0 -1.6,0l-0.7,2.2l-5.5,-6.4c0,0 -7,0.2 -10,2c-4,5.5 -4.1,7.4 -4.1,7.4l5.2,5.8l4.2,-4.8l-1.6,-3.2l-2.4,1.2c0,0 0.1,-3.6 4.4,-3.6c4.5,0 4.6,5.5 4.6,5.5c0,0 -1.6,5.8 -9,10.1c-5.8,-4.2 -8.9,-6.4 -9.6,-11.5c-0.2,-7.6 5.8,-12.6 13,-12.2z" id="Layer_1"></path></g></g></svg>