<svg xmlns="http://www.w3.org/2000/svg" xmlns:xlink="http://www.w3.org/1999/xlink" viewBox="0,0,256,256" width="100px" height="100px" fill-rule="nonzero"><g fill="#ffa500" fill-rule="nonzero" stroke="none" stroke-width="1" stroke-linecap="butt" stroke-linejoin="miter" stroke-miterlimit="10" stroke-dasharray="" stroke-dashoffset="0" font-family="none" font-weight="none" font-size="none" text-anchor="none" style="mix-blend-mode: normal"><g transform="scale(5.12,5.12)"><path d="M10.5,4c-0.43359,0 -0.80469,0.27344 -0.9375,0.6875l-9.5,29.59375c-0.11719,0.36719 -0.03516,0.79688 0.25,1.0625l10.09375,9.375c0.18359,0.17188 0.43359,0.28125 0.6875,0.28125h10.90625c0.44922,0 0.85156,-0.31641 0.96875,-0.75l1.34375,-4.90625c0.09375,0.02734 0.17969,0.0625 0.28125,0.0625h2.4375l4.625,5.25c0.19141,0.21875 0.46094,0.34375 0.75,0.34375h11.28125c0.48047,0 0.91016,-0.33984 1,-0.8125l5.28125,-28c0.04297,-0.21875 0.00781,-0.45703 -0.09375,-0.65625l-5.6875,-11c-0.17187,-0.33203 -0.5,-0.53125 -0.875,-0.53125h-11.40625c-0.45703,0 -0.85547,0.30859 -0.96875,0.75l-1.125,4.375l-2.34375,0.0625c-0.4375,0.01563 -0.82031,0.32813 -0.9375,0.75l-0.0625,0.1875l-4.15625,-5.71875c-0.1875,-0.25781 -0.49219,-0.40625 -0.8125,-0.40625zM11.21875,6h8.875l-1.375,4.59375h-8.96875zM32.6875,6h9.28125l-2.28125,9.59375h-4.6875c0.04688,-0.14453 0.07422,-0.28125 0.09375,-0.4375l0.5,-3.4375c0.10938,-0.98437 -0.23437,-1.60547 -0.53125,-1.9375c-0.28125,-0.3125 -0.78516,-0.6875 -1.65625,-0.6875h-1.53125zM30.625,11.09375h2.78125c0.13672,0 0.18359,0.03125 0.1875,0.03125c0.01563,0.02734 0.05078,0.15234 0.03125,0.34375l-0.53125,3.40625c-0.04297,0.39844 -0.41406,0.625 -0.78125,0.625c-0.15625,0 -0.30469,0.03125 -0.4375,0.09375h-4.75l0.9375,-3.4375c0.02734,-0.10156 0.03516,-0.21094 0.03125,-0.3125l0.1875,-0.65625zM9.125,12.59375h11.59375l-1,3.75c-0.07812,0.30078 -0.00391,0.62891 0.1875,0.875c0.1875,0.24609 0.47266,0.375 0.78125,0.375h18.5625l-3.46875,16.09375h-8.78125l2.96875,-11.03125c0.08203,-0.30078 0,-0.62891 -0.1875,-0.875c-0.1875,-0.24609 -0.46875,-0.375 -0.78125,-0.375h-3.5c-0.45312,0 -0.85156,0.3125 -0.96875,0.75l-1.3125,4.84375h-4.09375l1.25,-4.4375c0.08594,-0.30078 0,-0.625 -0.1875,-0.875c-0.1875,-0.25 -0.46875,-0.375 -0.78125,-0.375h-3.5c-0.44531,0 -0.84375,0.29297 -0.96875,0.71875l-1.125,3.875c-0.07031,0.09375 -0.15234,0.19531 -0.1875,0.3125l-0.03125,0.1875h-3.4375l0.40625,-1.21875c0.1875,-0.65625 0.06641,-1.34375 -0.3125,-1.84375c-0.35937,-0.47656 -0.92969,-0.75 -1.5625,-0.75h-2.78125zM5.25,24.59375h3.40625l-0.375,1.125c-0.19141,0.44922 -0.23828,0.89453 -0.125,1.3125c-0.34766,0.28516 -0.59375,0.65625 -0.71875,1.09375l-0.375,1.34375c-0.28906,0.72656 -0.23047,1.50781 0.15625,2.09375c0.3125,0.47266 0.96484,1.03125 2.375,1.03125h2.21875l-0.28125,0.90625l-9.15625,0.09375zM10.09375,28.40625h2.90625l-0.625,2.1875h-2.78125c-0.57812,0 -0.71875,-0.125 -0.71875,-0.125c-0.01172,-0.02734 -0.02344,-0.15234 0.03125,-0.28125c0.01563,-0.03906 0.05078,-0.08594 0.0625,-0.125l0.40625,-1.375c0.03516,-0.12891 0.33984,-0.28125 0.71875,-0.28125z"></path></g></g></svg>