<svg xmlns="http://www.w3.org/2000/svg" xmlns:xlink="http://www.w3.org/1999/xlink" viewBox="0,0,256,256" width="100px" height="100px" fill-rule="nonzero"><g fill="#ffa500" fill-rule="nonzero" stroke="none" stroke-width="1" stroke-linecap="butt" stroke-linejoin="miter" stroke-miterlimit="10" stroke-dasharray="" stroke-dashoffset="0" font-family="none" font-weight="none" font-size="none" text-anchor="none" style="mix-blend-mode: normal"><g transform="scale(5.12,5.12)"><path d="M25,2c-12.683,0 -23,10.318 -23,23c0,12.682 10.317,23 23,23c12.683,0 23,-10.318 23,-23c0,-12.682 -10.317,-23 -23,-23zM25,3.98633c11.587,0 21.01367,9.42667 21.01367,21.01367c0,11.587 -9.42567,21.01367 -21.01367,21.01367c-11.587,0 -21.01367,-9.42667 -21.01367,-21.01367c0,-11.587 9.42667,-21.01367 21.01367,-21.01367zM25,6c-0.595,0 -1.18167,0.03684 -1.76367,0.08984c0.024,0.046 0.04817,0.09025 0.07617,0.15625c0.151,0.352 -0.20312,1.00195 -0.20312,1.00195c0,0 -0.13312,-0.76978 -0.70312,-1.05078c-0.512,0.07 -1.01958,0.15367 -1.51758,0.26367c-0.632,0.441 -0.9578,1.20448 -0.0918,1.89648c1.257,1.006 1.21011,0.25173 1.66211,0.55273c0.453,0.302 0.80247,1.05422 1.35547,0.19922c0.553,-0.855 1.30569,-0.85339 1.05469,-0.40039c-0.251,0.453 -0.80387,0.75195 0.45313,0.75195h1.80859c0.855,0 1.61206,0.04956 1.91406,0.35156c0.302,0.302 0.45313,1.36133 0.45313,1.36133c0,0 1.35416,-0.30305 2.41016,0.50195c1.056,0.805 1.36133,2.16406 1.36133,2.16406c0,0 -2.31594,-0.10248 -1.46094,0.85351c0.855,0.956 0.60637,0.75347 1.10938,1.10547c0.503,0.352 0.95425,0.4543 1.40625,0.4043c0.453,-0.05 0.35147,-0.05044 1.10547,0.35156c0.754,0.402 1.60833,0.80452 2.11133,0.60352c0.503,-0.201 1.10733,-0.55405 1.86133,0.50195c0.754,1.056 0.80473,1.20508 0.30273,1.20508c-0.503,0 -0.65356,-0.24714 -0.35156,0.25586c0.302,0.503 0.503,0.40052 0,0.85352c-0.503,0.453 0.07288,0.57573 -0.07812,0.92773c-0.151,0.352 -0.32617,0.27734 -0.32617,0.27734c0,0 0.09983,0.85603 -0.07617,1.08203c-0.176,0.226 -0.75195,0.37891 -0.75195,0.37891c0,0 0.07353,-1.13477 -0.60547,-1.13477c-0.679,0 -0.90234,-0.02344 -0.90234,-0.02344c0,0 1.08059,0.78011 1.55859,2.03711c0.478,1.257 0.75425,2.43814 1.15625,3.49414c0.402,1.056 1.3305,1.50742 2.4375,1.48242c1.106,-0.025 1.33398,-0.83038 1.33398,-1.60937c0,-0.779 -0.12613,-0.82712 -0.45312,-1.07812c-0.327,-0.251 -0.62891,-0.33008 -0.62891,-0.33008c0,0 0.57916,-0.35205 1.53516,0.25195c0.191,0.12 0.30577,0.30372 0.38477,0.51172c0.027,-0.413 0.0625,-0.82219 0.0625,-1.24219c0,-10.477 -8.524,-19 -19,-19zM18.9668,6.99805c-0.262,0.088 -0.52034,0.18616 -0.77734,0.28516c0.047,0.021 0.09463,0.04341 0.14063,0.06641c0.201,0.101 0.1543,0.60352 0.1543,0.60352c0,0 -0.60525,-0.35156 -0.90625,-0.35156c-0.302,0 -0.3513,0.05225 -0.9043,0.65625c-0.554,0.604 0.45281,0.75469 1.25781,0.80469c0.805,0.05 2.66602,0.40039 2.66602,0.40039c0,0 -0.60264,-0.50247 -1.30664,-1.10547c-0.508,-0.435 -0.41522,-1.04938 -0.32422,-1.35937zM15.31641,8.68359c-2.314,1.379 -4.31437,3.22683 -5.85937,5.42383c0.147,0.007 0.32391,0.2175 0.37891,0.4375c0.101,0.402 0.35112,0.25039 0.70312,0.15039c0.352,-0.1 0.75464,-1.05637 1.05664,-1.60937c0.302,-0.553 1.10316,-1.20616 2.16016,-1.91016c1.056,-0.704 4.42774,-0.75781 4.42774,-0.75781c0,0 -0.80316,-0.35112 -1.91016,-0.70313c-0.796,-0.253 -0.93803,-0.76325 -0.95703,-1.03125zM25.73633,12.78516c-0.874,0.073 -1.4082,0.90234 -1.4082,0.90234c0,0 0.98366,-0.03516 1.34766,-0.03516c0.365,0 0.94288,0.27623 1.67188,0.61523c0.729,0.339 1.60938,0.15039 1.60938,0.15039c0,0 -0.52664,-0.37836 -1.30664,-0.81836c-0.78,-0.44 -0.75728,-0.77645 -1.73828,-0.81445c-0.061,-0.002 -0.11778,-0.005 -0.17578,0zM9.25977,14.37109c-1.658,2.448 -2.74928,5.30681 -3.11328,8.38281c-0.028,0.264 -0.05031,0.51581 -0.07031,0.75781c-0.039,0.493 -0.07422,0.98628 -0.07422,1.48828c0,4.997 1.95219,9.53469 5.11719,12.92969c0.799,0.74 1.5775,1.30242 2.1875,1.60742c1.71,0.855 3.82008,1.20608 5.58008,0.95508c1.76,-0.251 2.71602,-0.65377 2.66602,-1.75977c-0.051,-1.106 -1.71101,-2.11406 -2.66602,-2.16406c-0.956,-0.05 -2.11328,-0.55078 -2.11328,-0.55078c0,0 -0.24883,0.34995 -0.29883,0.75195c-0.05,0.402 -0.25325,0.60364 -0.65625,1.05664c-0.402,0.453 -0.65044,0.04787 -0.39844,-0.20312c0.251,-0.251 0.29844,-0.45095 0.14844,-0.75195c-0.151,-0.302 -0.25173,-0.25064 -0.30273,-1.30664c-0.05,-1.056 -0.90191,-1.6092 -1.25391,-1.4082c-0.352,0.201 -0.30525,0.24834 -0.40625,0.90234c-0.101,0.654 -0.24952,1.26206 -0.85352,1.66406c-0.604,0.402 -1.46006,0.24714 -2.16406,-0.25586c-0.704,-0.503 -0.75427,-1.20339 0.30273,-0.65039c1.056,0.553 1.2592,-0.4532 1.1582,-1.4082c-0.101,-0.955 0,-2.51758 0,-2.51758c0,0 -0.90794,-1.40672 -1.46094,-2.26172c-0.553,-0.855 -1.05664,-2.41016 -1.05664,-2.41016c0,0 -0.75203,1.00195 -1.70703,1.00195c-0.955,0 -1.60937,-0.80469 -1.60937,-0.80469l0.80469,-0.19727c0.402,-0.101 0.30112,-0.35637 0.70313,-0.85937c0.402,-0.503 0.50195,-2.25992 0.50195,-3.91992c0,-1.659 0.35425,-3.97491 0.65625,-4.62891c0.302,-0.654 1.15625,-1.60742 1.15625,-1.60742c0,0 -0.80469,-0.65555 -0.80469,-1.56055c0,-0.114 0.01334,-0.19648 0.02734,-0.27148zM27.32227,16.56055c-1.583,0.012 -2.34961,1.30078 -2.34961,1.30078c0,0 1.6868,0.55308 2.5918,0.95508c0.905,0.402 1.27958,1.08106 3.39258,2.53906c2.113,1.458 4.04883,1.50977 4.04883,1.50977l-0.07617,-1.75977c0,0 -0.5785,-0.10203 -2.1875,-1.08203c-1.609,-0.98 -1.28444,-1.95823 -3.89844,-3.11523c-0.572,-0.253 -1.07848,-0.35066 -1.52148,-0.34766zM17.9043,17.36133c0,0 -0.09983,1.02786 -0.04883,1.63086c0.051,0.603 0.22891,0.95876 0.37891,1.00977c0.151,0.05 0.42622,0.19934 0.07422,0.77734c-0.352,0.578 -0.55547,0.9532 -0.48047,1.7832c0.075,0.83 0.75719,2.76709 2.49219,3.37109c1.735,0.603 3.87245,0.6303 6.93945,0.4043c3.068,-0.226 5.30614,-0.47983 7.49414,0.57617c2.188,1.056 3.82061,3.24574 4.47461,4.42773c0.654,1.182 0.9303,3.14344 0.7793,4.14844c-0.082,0.548 -0.24495,1.16419 -0.37695,1.61719c1.708,-2.061 2.96945,-4.49539 3.68945,-7.15039c-0.177,0.505 -0.64069,1.3352 -1.80469,1.2832c-1.659,-0.075 -3.01792,-2.36509 -3.29492,-3.37109c-0.277,-1.006 -1.00391,-4.19727 -1.00391,-4.19727c0,0 -0.62738,0.98008 -1.73437,0.95508c-1.106,-0.025 -1.03228,-0.32673 -1.98828,-0.42773c-0.956,-0.101 -1.40997,0.30041 -2.66797,-1.18359c-1.257,-1.484 -3.06731,-2.76345 -3.69531,-2.93945c-0.628,-0.176 -2.0088,-1.31012 -3.4668,-0.20312c-1.458,1.106 -2.51575,1.03125 -3.09375,1.03125c-0.578,0 -2.26228,-0.47559 -2.36328,-1.80859c-0.101,-1.333 -0.30273,-1.73437 -0.30273,-1.73437zM34.51172,17.60352c-0.105,0.003 -0.21984,0.01864 -0.33984,0.05664c-0.955,0.302 -0.27344,1.08203 -0.27344,1.08203c0,0 0.27473,-0.17673 0.67773,-0.30273c0.402,-0.125 1.05664,-0.15039 1.05664,-0.15039c0,0 -0.38509,-0.71055 -1.12109,-0.68555zM36.14844,22.0293c-0.154,0.012 -0.28933,0.08594 -0.36133,0.21094c-0.131,0.229 -0.00384,0.54689 0.28516,0.71289c0.289,0.165 0.63072,0.11572 0.76172,-0.11328c0.131,-0.229 0.00384,-0.55375 -0.28516,-0.71875c-0.108,-0.062 -0.22498,-0.0888 -0.33398,-0.0918c-0.023,-0.001 -0.04441,-0.002 -0.06641,0zM43.70508,28.22852c-0.127,0.251 -0.27573,0.45726 -0.42773,0.57227c-0.629,0.478 -1.33355,0.70508 -1.68555,0.70508c-0.352,0 -1.33398,-0.30469 -1.33398,-0.30469c0,0 0.42955,1.03047 1.43555,1.10547c0.967,0.073 1.66966,-0.6598 1.72266,-0.7168c0.112,-0.448 0.20906,-0.90133 0.28906,-1.36133z"></path></g></g></svg>